<svg width="31" height="23" viewBox="0 0 31 23" fill="none" xmlns="http://www.w3.org/2000/svg">
<path fill-rule="evenodd" clip-rule="evenodd" d="M15.1218 0.00408816C19.7933 0.00408816 23.7877 2.95983 25.4103 7.13384H25.4663C28.0104 7.13384 30.0938 9.25969 30.0938 11.8598V13.2293C30.0938 15.8253 28.0144 17.9511 25.4663 17.9511H24.0721C22.3013 20.4285 19.5689 22.1456 16.4399 22.5258C16.3558 22.7997 16.1034 23 15.8069 23H12.8341C12.4696 23 12.1691 22.6975 12.1691 22.3214V21.1399C12.1691 20.7679 12.4655 20.4613 12.8341 20.4613H15.8069C16.0833 20.4613 16.3237 20.6411 16.4199 20.8864C21.0433 20.2364 24.597 16.1932 24.597 11.2997C24.597 5.95645 20.3542 1.623 15.1178 1.623C9.88542 1.623 5.64263 5.95236 5.64263 11.2997C5.64263 13.863 6.61619 16.1973 8.21474 17.9266H4.32853C1.96474 17.7222 0.09375 15.6822 0.09375 13.2211V11.8516C0.09375 9.2556 2.17308 7.12975 4.72115 7.12975H4.82933C6.45593 2.95165 10.4503 0 15.1178 0L15.1218 0.00408816ZM15.1218 3.63846C19.2684 3.63846 22.6298 7.06843 22.6298 11.3038C22.6298 15.535 19.2684 18.9691 15.1218 18.9691C14.2724 18.9691 13.4551 18.8219 12.6939 18.5562C10.8149 20.171 7.29327 20.8292 8.60337 20.1219C9.52885 19.6232 9.76122 17.9143 9.8133 16.7165C8.45513 15.3306 7.61378 13.4173 7.61378 11.2997C7.61378 7.06843 10.9752 3.63438 15.1218 3.63438V3.63846ZM18.0865 10.3676C18.6474 10.3676 19.1042 10.8295 19.1042 11.406C19.1042 11.9742 18.6514 12.4403 18.0865 12.4403C17.5296 12.4403 17.0729 11.9783 17.0729 11.406C17.0729 10.8336 17.5256 10.3676 18.0865 10.3676ZM15.1218 10.3676C15.6827 10.3676 16.1394 10.8295 16.1394 11.406C16.1394 11.9742 15.6867 12.4403 15.1218 12.4403C14.5649 12.4403 14.1082 11.9783 14.1082 11.406C14.1082 10.8336 14.5609 10.3676 15.1218 10.3676ZM12.1571 10.3676C12.718 10.3676 13.1747 10.8295 13.1747 11.406C13.1747 11.9742 12.722 12.4403 12.1571 12.4403C11.6002 12.4403 11.1434 11.9783 11.1434 11.406C11.1434 10.8336 11.5962 10.3676 12.1571 10.3676Z" fill="#470404"/>
</svg>
