<svg width="70" height="85" viewBox="0 0 70 85" fill="none" xmlns="http://www.w3.org/2000/svg">
<mask id="mask0_1008_1461" style="mask-type:luminance" maskUnits="userSpaceOnUse" x="0" y="0" width="70" height="85">
<path d="M0.09375 0H69.3758V84.2317H0.09375V0Z" fill="white"/>
</mask>
<g mask="url(#mask0_1008_1461)">
<path fill-rule="evenodd" clip-rule="evenodd" d="M61.6984 34.5077L61.8202 34.5547C62.7 34.8731 63.7676 35.0708 64.5849 35.4295C64.9327 35.5803 65.1587 35.8987 65.1761 36.2775V40.1925L64.6962 40.0718C62.7313 39.5891 61.6845 38.1177 61.382 36.3915C61.2255 37.5981 61.3089 39.1534 61.3194 39.874C61.3507 41.8248 63.093 43.3733 64.9118 43.9432L65.1796 44.027V54.3741L69.0085 50.9854L68.9911 36.1267C68.9911 36.0429 68.9529 35.9725 68.8833 35.9323C66.5776 35.5837 63.3016 34.6116 61.3681 33.0229L61.3994 34.3938C61.4724 34.4239 61.5489 34.4541 61.6254 34.4843L61.7054 34.5144L61.6984 34.5077ZM0.108946 50.8178L4.28215 54.4914V36.3915C4.30301 36.0161 4.52558 35.701 4.87335 35.5434C5.8784 35.101 7.0608 34.8362 8.14236 34.4105L8.17713 32.8184C6.16009 34.4608 2.56766 35.5367 0.213276 35.9256C0.147201 35.9658 0.105469 36.0362 0.105469 36.1233V50.8178H0.108946ZM13.7379 52.7585L17.5842 55.7249L17.5703 22.488C17.5703 22.1026 17.7964 21.7573 18.1615 21.5998C19.2222 21.1305 20.2899 20.5842 21.3019 20.0211V17.2189C19.4552 19.3842 16.5374 21.2009 13.8527 21.9719C13.7762 22.0154 13.7275 22.0858 13.7275 22.1763L13.7379 52.7618V52.7585ZM26.3584 14.0615V47.4626L30.2742 50.4759V15.9888H39.3579V55.5472L43.2738 52.5373L43.2772 21.0669L43.2668 8.02486C43.2807 7.89413 43.2633 7.60588 43.1416 7.54889C40.8116 6.48971 37.4765 4.39146 36.1897 2.25634C35.7655 1.55246 35.2542 0.768125 34.823 0.00390625C34.3987 0.761421 33.8388 1.60944 33.4459 2.25634C32.1557 4.39481 28.8206 6.49307 26.494 7.54889C26.3723 7.60588 26.3549 7.89413 26.3688 8.02486L26.3653 14.0649H26.3584V14.0615ZM35.1186 4.55905L39.0832 6.89864C39.2536 6.99919 39.3544 7.17349 39.3544 7.36454V12.0337H30.2777V7.36454C30.2777 7.17349 30.3786 6.99919 30.549 6.89864L34.5135 4.55905C34.7013 4.4518 34.9274 4.4518 35.1151 4.55905H35.1186ZM43.2251 59.2309L39.4344 62.2174V74.5153L34.7569 79L30.3751 74.7935V57.3807L22.9398 51.4881V56.3383L26.3653 59.0532V69.6484L13.7414 59.4253V64.2117L26.3653 74.4382V76.104L34.83 84.2289L43.2738 76.1242V74.2203L55.696 64.1011C55.7551 64.0542 55.7829 63.9972 55.7829 63.9235L55.8003 22.3272C55.8003 22.2367 55.7551 22.1629 55.6751 22.1227C52.9591 21.3048 49.9126 19.4178 48.0208 17.2089V20.011C49.0328 20.5775 50.0969 21.1205 51.1611 21.5897C51.5263 21.7506 51.7523 22.0892 51.7523 22.478L51.7349 61.9962C51.7349 62.2911 51.6062 62.5526 51.3767 62.7436L43.2251 69.387V59.2275V59.2309Z" fill="white"/>
</g>
</svg>
