<svg width="70" height="85" viewBox="0 0 70 85" fill="none" xmlns="http://www.w3.org/2000/svg">
<path fill-rule="evenodd" clip-rule="evenodd" d="M6.48962 38.1992H8.2528C8.33974 38.1992 8.41625 38.2663 8.41625 38.3568V40.0226C8.41625 40.1098 8.33974 40.1835 8.2528 40.1835H6.48962C6.3992 40.1835 6.32617 40.1098 6.32617 40.0226V38.3568C6.32617 38.2696 6.3992 38.1992 6.48962 38.1992Z" fill="white"/>
<path fill-rule="evenodd" clip-rule="evenodd" d="M19.1517 24.623H20.9114C21.0019 24.623 21.0784 24.6934 21.0784 24.7806V26.4464C21.0784 26.5336 21.0019 26.6073 20.9114 26.6073H19.1517C19.0613 26.6073 18.9883 26.5369 18.9883 26.4464V24.7806C18.9883 24.6934 19.0613 24.623 19.1517 24.623Z" fill="white"/>
<path fill-rule="evenodd" clip-rule="evenodd" d="M44.9521 24.3887H46.7118C46.8022 24.3887 46.8752 24.4624 46.8752 24.5496V26.2154C46.8752 26.3026 46.8022 26.373 46.7118 26.373H44.9521C44.8617 26.373 44.7852 26.3059 44.7852 26.2154V24.5496C44.7852 24.4624 44.8617 24.3887 44.9521 24.3887Z" fill="white"/>
<path fill-rule="evenodd" clip-rule="evenodd" d="M9.95642 38.1992H11.7196C11.8065 38.1992 11.883 38.2663 11.883 38.3568V40.0226C11.883 40.1098 11.8065 40.1835 11.7196 40.1835H9.95642C9.866 40.1835 9.79297 40.1098 9.79297 40.0226V38.3568C9.79297 38.2696 9.866 38.1992 9.95642 38.1992Z" fill="white"/>
<path fill-rule="evenodd" clip-rule="evenodd" d="M22.6224 24.623H24.3856C24.4726 24.623 24.5491 24.6934 24.5491 24.7806V26.4464C24.5491 26.5336 24.4726 26.6073 24.3856 26.6073H22.6224C22.532 26.6073 22.459 26.5369 22.459 26.4464V24.7806C22.459 24.6934 22.532 24.623 22.6224 24.623Z" fill="white"/>
<path fill-rule="evenodd" clip-rule="evenodd" d="M48.4208 24.3887H50.1805C50.271 24.3887 50.344 24.4624 50.344 24.5496V26.2154C50.344 26.3026 50.271 26.373 50.1805 26.373H48.4208C48.3304 26.373 48.2539 26.3059 48.2539 26.2154V24.5496C48.2539 24.4624 48.3304 24.3887 48.4208 24.3887Z" fill="white"/>
<path fill-rule="evenodd" clip-rule="evenodd" d="M6.48962 41.3398H8.2528C8.33974 41.3398 8.41625 41.4102 8.41625 41.4974V43.1632C8.41625 43.2504 8.33974 43.3241 8.2528 43.3241H6.48962C6.3992 43.3241 6.32617 43.2537 6.32617 43.1632V41.4974C6.32617 41.4102 6.3992 41.3398 6.48962 41.3398Z" fill="white"/>
<path fill-rule="evenodd" clip-rule="evenodd" d="M19.1517 27.7637H20.9114C21.0019 27.7637 21.0784 27.8307 21.0784 27.9212V29.5871C21.0784 29.6742 21.0019 29.748 20.9114 29.748H19.1517C19.0613 29.748 18.9883 29.6742 18.9883 29.5871V27.9212C18.9883 27.8341 19.0613 27.7637 19.1517 27.7637Z" fill="white"/>
<path fill-rule="evenodd" clip-rule="evenodd" d="M44.9521 27.5293H46.7118C46.8022 27.5293 46.8752 27.5997 46.8752 27.6902V29.356C46.8752 29.4432 46.8022 29.5136 46.7118 29.5136H44.9521C44.8617 29.5136 44.7852 29.4432 44.7852 29.356V27.6902C44.7852 27.603 44.8617 27.5293 44.9521 27.5293Z" fill="white"/>
<path fill-rule="evenodd" clip-rule="evenodd" d="M9.95642 41.3398H11.7196C11.8065 41.3398 11.883 41.4102 11.883 41.4974V43.1632C11.883 43.2504 11.8065 43.3241 11.7196 43.3241H9.95642C9.866 43.3241 9.79297 43.2537 9.79297 43.1632V41.4974C9.79297 41.4102 9.866 41.3398 9.95642 41.3398Z" fill="white"/>
<path fill-rule="evenodd" clip-rule="evenodd" d="M22.6224 27.7637H24.3856C24.4726 27.7637 24.5491 27.8307 24.5491 27.9212V29.5871C24.5491 29.6742 24.4726 29.748 24.3856 29.748H22.6224C22.532 29.748 22.459 29.6742 22.459 29.5871V27.9212C22.459 27.8341 22.532 27.7637 22.6224 27.7637Z" fill="white"/>
<path fill-rule="evenodd" clip-rule="evenodd" d="M48.4208 27.5293H50.1805C50.271 27.5293 50.344 27.5997 50.344 27.6902V29.356C50.344 29.4432 50.271 29.5136 50.1805 29.5136H48.4208C48.3304 29.5136 48.2539 29.4432 48.2539 29.356V27.6902C48.2539 27.603 48.3304 27.5293 48.4208 27.5293Z" fill="white"/>
<path fill-rule="evenodd" clip-rule="evenodd" d="M6.48962 44.6465H8.2528C8.33974 44.6465 8.41625 44.7169 8.41625 44.8074V46.4732C8.41625 46.557 8.33974 46.6308 8.2528 46.6308H6.48962C6.3992 46.6308 6.32617 46.557 6.32617 46.4732V44.8074C6.32617 44.7202 6.3992 44.6465 6.48962 44.6465Z" fill="white"/>
<path fill-rule="evenodd" clip-rule="evenodd" d="M19.1517 31.0625H20.9114C21.0019 31.0625 21.0784 31.1362 21.0784 31.2234V32.8893C21.0784 32.9764 21.0019 33.0468 20.9114 33.0468H19.1517C19.0613 33.0468 18.9883 32.9798 18.9883 32.8893V31.2234C18.9883 31.1362 19.0613 31.0625 19.1517 31.0625Z" fill="white"/>
<path fill-rule="evenodd" clip-rule="evenodd" d="M44.9521 30.832H46.7118C46.8022 30.832 46.8752 30.9058 46.8752 30.9929V32.6588C46.8752 32.7426 46.8022 32.8163 46.7118 32.8163H44.9521C44.8617 32.8163 44.7852 32.7459 44.7852 32.6588V30.9929C44.7852 30.9058 44.8617 30.832 44.9521 30.832Z" fill="white"/>
<path fill-rule="evenodd" clip-rule="evenodd" d="M9.95642 44.6465H11.7196C11.8065 44.6465 11.883 44.7169 11.883 44.8074V46.4732C11.883 46.557 11.8065 46.6308 11.7196 46.6308H9.95642C9.866 46.6308 9.79297 46.557 9.79297 46.4732V44.8074C9.79297 44.7202 9.866 44.6465 9.95642 44.6465Z" fill="white"/>
<path fill-rule="evenodd" clip-rule="evenodd" d="M22.6224 31.0625H24.3856C24.4726 31.0625 24.5491 31.1362 24.5491 31.2234V32.8893C24.5491 32.9764 24.4726 33.0468 24.3856 33.0468H22.6224C22.532 33.0468 22.459 32.9798 22.459 32.8893V31.2234C22.459 31.1362 22.532 31.0625 22.6224 31.0625Z" fill="white"/>
<path fill-rule="evenodd" clip-rule="evenodd" d="M48.4208 30.832H50.1805C50.271 30.832 50.344 30.9058 50.344 30.9929V32.6588C50.344 32.7426 50.271 32.8163 50.1805 32.8163H48.4208C48.3304 32.8163 48.2539 32.7459 48.2539 32.6588V30.9929C48.2539 30.9058 48.3304 30.832 48.4208 30.832Z" fill="white"/>
<path fill-rule="evenodd" clip-rule="evenodd" d="M6.48962 47.707H8.2528C8.33974 47.707 8.41625 47.7808 8.41625 47.8679V49.5338C8.41625 49.6209 8.33974 49.6913 8.2528 49.6913H6.48962C6.3992 49.6913 6.32617 49.6209 6.32617 49.5338V47.8679C6.32617 47.7808 6.3992 47.707 6.48962 47.707Z" fill="white"/>
<path fill-rule="evenodd" clip-rule="evenodd" d="M19.1517 34.1328H20.9114C21.0019 34.1328 21.0784 34.2032 21.0784 34.2903V35.9562C21.0784 36.0434 21.0019 36.1171 20.9114 36.1171H19.1517C19.0613 36.1171 18.9883 36.0467 18.9883 35.9562V34.2903C18.9883 34.2032 19.0613 34.1328 19.1517 34.1328Z" fill="white"/>
<path fill-rule="evenodd" clip-rule="evenodd" d="M44.9521 33.8984H46.7118C46.8022 33.8984 46.8752 33.9688 46.8752 34.0593V35.7252C46.8752 35.8123 46.8022 35.8827 46.7118 35.8827H44.9521C44.8617 35.8827 44.7852 35.8157 44.7852 35.7252V34.0593C44.7852 33.9722 44.8617 33.8984 44.9521 33.8984Z" fill="white"/>
<path fill-rule="evenodd" clip-rule="evenodd" d="M9.95642 47.707H11.7196C11.8065 47.707 11.883 47.7808 11.883 47.8679V49.5338C11.883 49.6209 11.8065 49.6913 11.7196 49.6913H9.95642C9.866 49.6913 9.79297 49.6209 9.79297 49.5338V47.8679C9.79297 47.7808 9.866 47.707 9.95642 47.707Z" fill="white"/>
<path fill-rule="evenodd" clip-rule="evenodd" d="M22.6224 34.1328H24.3856C24.4726 34.1328 24.5491 34.2032 24.5491 34.2903V35.9562C24.5491 36.0434 24.4726 36.1171 24.3856 36.1171H22.6224C22.532 36.1171 22.459 36.0467 22.459 35.9562V34.2903C22.459 34.2032 22.532 34.1328 22.6224 34.1328Z" fill="white"/>
<path fill-rule="evenodd" clip-rule="evenodd" d="M48.4208 33.8984H50.1805C50.271 33.8984 50.344 33.9688 50.344 34.0593V35.7252C50.344 35.8123 50.271 35.8827 50.1805 35.8827H48.4208C48.3304 35.8827 48.2539 35.8157 48.2539 35.7252V34.0593C48.2539 33.9722 48.3304 33.8984 48.4208 33.8984Z" fill="white"/>
<path fill-rule="evenodd" clip-rule="evenodd" d="M6.48962 50.7676H8.2528C8.33974 50.7676 8.41625 50.838 8.41625 50.9251V52.591C8.41625 52.6781 8.33974 52.7519 8.2528 52.7519H6.48962C6.3992 52.7519 6.32617 52.6815 6.32617 52.591V50.9251C6.32617 50.838 6.3992 50.7676 6.48962 50.7676Z" fill="white"/>
<path fill-rule="evenodd" clip-rule="evenodd" d="M19.1517 37.1836H20.9114C21.0019 37.1836 21.0784 37.2506 21.0784 37.3411V39.007C21.0784 39.0941 21.0019 39.1679 20.9114 39.1679H19.1517C19.0613 39.1679 18.9883 39.0975 18.9883 39.007V37.3411C18.9883 37.2573 19.0613 37.1836 19.1517 37.1836Z" fill="white"/>
<path fill-rule="evenodd" clip-rule="evenodd" d="M44.9521 36.9531H46.7118C46.8022 36.9531 46.8752 37.0202 46.8752 37.1107V38.7765C46.8752 38.8637 46.8022 38.9374 46.7118 38.9374H44.9521C44.8617 38.9374 44.7852 38.867 44.7852 38.7765V37.1107C44.7852 37.0235 44.8617 36.9531 44.9521 36.9531Z" fill="white"/>
<path fill-rule="evenodd" clip-rule="evenodd" d="M9.95642 50.7676H11.7196C11.8065 50.7676 11.883 50.838 11.883 50.9251V52.591C11.883 52.6781 11.8065 52.7519 11.7196 52.7519H9.95642C9.866 52.7519 9.79297 52.6815 9.79297 52.591V50.9251C9.79297 50.838 9.866 50.7676 9.95642 50.7676Z" fill="white"/>
<path fill-rule="evenodd" clip-rule="evenodd" d="M22.6224 37.1836H24.3856C24.4726 37.1836 24.5491 37.2506 24.5491 37.3411V39.007C24.5491 39.0941 24.4726 39.1679 24.3856 39.1679H22.6224C22.532 39.1679 22.459 39.0975 22.459 39.007V37.3411C22.459 37.2573 22.532 37.1836 22.6224 37.1836Z" fill="white"/>
<path fill-rule="evenodd" clip-rule="evenodd" d="M48.4208 36.9531H50.1805C50.271 36.9531 50.344 37.0202 50.344 37.1107V38.7765C50.344 38.8637 50.271 38.9374 50.1805 38.9374H48.4208C48.3304 38.9374 48.2539 38.867 48.2539 38.7765V37.1107C48.2539 37.0235 48.3304 36.9531 48.4208 36.9531Z" fill="white"/>
<path fill-rule="evenodd" clip-rule="evenodd" d="M57.8818 44.2266H59.6415C59.7319 44.2266 59.8084 44.3003 59.8084 44.3875V46.0533C59.8084 46.1371 59.7319 46.2109 59.6415 46.2109H57.8818C57.7914 46.2109 57.7148 46.1438 57.7148 46.0533V44.3875C57.7148 44.3003 57.7914 44.2266 57.8818 44.2266Z" fill="white"/>
<path fill-rule="evenodd" clip-rule="evenodd" d="M6.48962 53.8965H8.2528C8.33974 53.8965 8.41625 53.9635 8.41625 54.054V55.7199C8.41625 55.807 8.33974 55.8808 8.2528 55.8808H6.48962C6.3992 55.8808 6.32617 55.807 6.32617 55.7199V54.054C6.32617 53.9669 6.3992 53.8965 6.48962 53.8965Z" fill="white"/>
<path fill-rule="evenodd" clip-rule="evenodd" d="M19.1517 40.3203H20.9114C21.0019 40.3203 21.0784 40.3941 21.0784 40.4778V42.1437C21.0784 42.2309 21.0019 42.3046 20.9114 42.3046H19.1517C19.0613 42.3046 18.9883 42.2342 18.9883 42.1437V40.4778C18.9883 40.3941 19.0613 40.3203 19.1517 40.3203Z" fill="white"/>
<path fill-rule="evenodd" clip-rule="evenodd" d="M44.9521 40.084H46.7118C46.8022 40.084 46.8752 40.1544 46.8752 40.2415V41.9074C46.8752 41.9945 46.8022 42.0683 46.7118 42.0683H44.9521C44.8617 42.0683 44.7852 41.9979 44.7852 41.9074V40.2415C44.7852 40.1544 44.8617 40.084 44.9521 40.084Z" fill="white"/>
<path fill-rule="evenodd" clip-rule="evenodd" d="M61.351 44.2266H63.1107C63.2011 44.2266 63.2776 44.3003 63.2776 44.3875V46.0533C63.2776 46.1371 63.2011 46.2109 63.1107 46.2109H61.351C61.2605 46.2109 61.1875 46.1438 61.1875 46.0533V44.3875C61.1875 44.3003 61.2605 44.2266 61.351 44.2266Z" fill="white"/>
<path fill-rule="evenodd" clip-rule="evenodd" d="M9.95642 53.8965H11.7196C11.8065 53.8965 11.883 53.9635 11.883 54.054V55.7199C11.883 55.807 11.8065 55.8808 11.7196 55.8808H9.95642C9.866 55.8808 9.79297 55.807 9.79297 55.7199V54.054C9.79297 53.9669 9.866 53.8965 9.95642 53.8965Z" fill="white"/>
<path fill-rule="evenodd" clip-rule="evenodd" d="M22.6224 40.3203H24.3856C24.4726 40.3203 24.5491 40.3941 24.5491 40.4778V42.1437C24.5491 42.2309 24.4726 42.3046 24.3856 42.3046H22.6224C22.532 42.3046 22.459 42.2342 22.459 42.1437V40.4778C22.459 40.3941 22.532 40.3203 22.6224 40.3203Z" fill="white"/>
<path fill-rule="evenodd" clip-rule="evenodd" d="M48.4208 40.084H50.1805C50.271 40.084 50.344 40.1544 50.344 40.2415V41.9074C50.344 41.9945 50.271 42.0683 50.1805 42.0683H48.4208C48.3304 42.0683 48.2539 41.9979 48.2539 41.9074V40.2415C48.2539 40.1544 48.3304 40.084 48.4208 40.084Z" fill="white"/>
<path fill-rule="evenodd" clip-rule="evenodd" d="M57.8818 47.3281H59.6415C59.7319 47.3281 59.8084 47.3985 59.8084 47.4857V49.1515C59.8084 49.2387 59.7319 49.3124 59.6415 49.3124H57.8818C57.7914 49.3124 57.7148 49.2387 57.7148 49.1515V47.4857C57.7148 47.4019 57.7914 47.3281 57.8818 47.3281Z" fill="white"/>
<path fill-rule="evenodd" clip-rule="evenodd" d="M19.1517 43.5684H20.9114C21.0019 43.5684 21.0784 43.6421 21.0784 43.7259V45.3918C21.0784 45.4789 21.0019 45.5526 20.9114 45.5526H19.1517C19.0613 45.5526 18.9883 45.4823 18.9883 45.3918V43.7259C18.9883 43.6421 19.0613 43.5684 19.1517 43.5684Z" fill="white"/>
<path fill-rule="evenodd" clip-rule="evenodd" d="M44.9521 43.3359H46.7118C46.8022 43.3359 46.8752 43.4063 46.8752 43.4935V45.1593C46.8752 45.2465 46.8022 45.3202 46.7118 45.3202H44.9521C44.8617 45.3202 44.7852 45.2498 44.7852 45.1593V43.4935C44.7852 43.4063 44.8617 43.3359 44.9521 43.3359Z" fill="white"/>
<path fill-rule="evenodd" clip-rule="evenodd" d="M61.351 47.3281H63.1107C63.2011 47.3281 63.2776 47.3985 63.2776 47.4857V49.1515C63.2776 49.2387 63.2011 49.3124 63.1107 49.3124H61.351C61.2605 49.3124 61.1875 49.2387 61.1875 49.1515V47.4857C61.1875 47.4019 61.2605 47.3281 61.351 47.3281Z" fill="white"/>
<path fill-rule="evenodd" clip-rule="evenodd" d="M22.6224 43.5684H24.3856C24.4726 43.5684 24.5491 43.6421 24.5491 43.7259V45.3918C24.5491 45.4789 24.4726 45.5526 24.3856 45.5526H22.6224C22.532 45.5526 22.459 45.4823 22.459 45.3918V43.7259C22.459 43.6421 22.532 43.5684 22.6224 43.5684Z" fill="white"/>
<path fill-rule="evenodd" clip-rule="evenodd" d="M48.4208 43.3359H50.1805C50.271 43.3359 50.344 43.4063 50.344 43.4935V45.1593C50.344 45.2465 50.271 45.3202 50.1805 45.3202H48.4208C48.3304 45.3202 48.2539 45.2498 48.2539 45.1593V43.4935C48.2539 43.4063 48.3304 43.3359 48.4208 43.3359Z" fill="white"/>
<path fill-rule="evenodd" clip-rule="evenodd" d="M57.8818 50.582H59.6415C59.7319 50.582 59.8084 50.6558 59.8084 50.7429V52.4054C59.8084 52.4926 59.7319 52.5663 59.6415 52.5663H57.8818C57.7914 52.5663 57.7148 52.4959 57.7148 52.4054V50.7429C57.7148 50.6558 57.7914 50.582 57.8818 50.582Z" fill="white"/>
<path fill-rule="evenodd" clip-rule="evenodd" d="M19.1517 46.6758H20.9114C21.0019 46.6758 21.0784 46.7428 21.0784 46.8333V48.4992C21.0784 48.5863 21.0019 48.6601 20.9114 48.6601H19.1517C19.0613 48.6601 18.9883 48.5863 18.9883 48.4992V46.8333C18.9883 46.7462 19.0613 46.6758 19.1517 46.6758Z" fill="white"/>
<path fill-rule="evenodd" clip-rule="evenodd" d="M44.9521 46.4375H46.7118C46.8022 46.4375 46.8752 46.5112 46.8752 46.5984V48.2643C46.8752 48.3514 46.8022 48.4218 46.7118 48.4218H44.9521C44.8617 48.4218 44.7852 48.3548 44.7852 48.2643V46.5984C44.7852 46.5112 44.8617 46.4375 44.9521 46.4375Z" fill="white"/>
<path fill-rule="evenodd" clip-rule="evenodd" d="M61.351 50.582H63.1107C63.2011 50.582 63.2776 50.6558 63.2776 50.7429V52.4054C63.2776 52.4926 63.2011 52.5663 63.1107 52.5663H61.351C61.2605 52.5663 61.1875 52.4959 61.1875 52.4054V50.7429C61.1875 50.6558 61.2605 50.582 61.351 50.582Z" fill="white"/>
<path fill-rule="evenodd" clip-rule="evenodd" d="M22.6224 46.6758H24.3856C24.4726 46.6758 24.5491 46.7428 24.5491 46.8333V48.4992C24.5491 48.5863 24.4726 48.6601 24.3856 48.6601H22.6224C22.532 48.6601 22.459 48.5863 22.459 48.4992V46.8333C22.459 46.7462 22.532 46.6758 22.6224 46.6758Z" fill="white"/>
<path fill-rule="evenodd" clip-rule="evenodd" d="M48.4208 46.4375H50.1805C50.271 46.4375 50.344 46.5112 50.344 46.5984V48.2643C50.344 48.3514 50.271 48.4218 50.1805 48.4218H48.4208C48.3304 48.4218 48.2539 48.3548 48.2539 48.2643V46.5984C48.2539 46.5112 48.3304 46.4375 48.4208 46.4375Z" fill="white"/>
<path fill-rule="evenodd" clip-rule="evenodd" d="M57.8818 53.7109H59.6415C59.7319 53.7109 59.8084 53.7813 59.8084 53.8685V55.5343C59.8084 55.6215 59.7319 55.6952 59.6415 55.6952H57.8818C57.7914 55.6952 57.7148 55.6248 57.7148 55.5343V53.8685C57.7148 53.7847 57.7914 53.7109 57.8818 53.7109Z" fill="white"/>
<path fill-rule="evenodd" clip-rule="evenodd" d="M19.1517 49.9375H20.9114C21.0019 49.9375 21.0784 50.0112 21.0784 50.095V51.7609C21.0784 51.848 21.0019 51.9218 20.9114 51.9218H19.1517C19.0613 51.9218 18.9883 51.8514 18.9883 51.7609V50.095C18.9883 50.0112 19.0613 49.9375 19.1517 49.9375Z" fill="white"/>
<path fill-rule="evenodd" clip-rule="evenodd" d="M44.9521 49.7031H46.7118C46.8022 49.7031 46.8752 49.7735 46.8752 49.8607V51.5265C46.8752 51.6137 46.8022 51.6874 46.7118 51.6874H44.9521C44.8617 51.6874 44.7852 51.617 44.7852 51.5265V49.8607C44.7852 49.7735 44.8617 49.7031 44.9521 49.7031Z" fill="white"/>
<path fill-rule="evenodd" clip-rule="evenodd" d="M61.351 53.7109H63.1107C63.2011 53.7109 63.2776 53.7813 63.2776 53.8685V55.5343C63.2776 55.6215 63.2011 55.6952 63.1107 55.6952H61.351C61.2605 55.6952 61.1875 55.6248 61.1875 55.5343V53.8685C61.1875 53.7847 61.2605 53.7109 61.351 53.7109Z" fill="white"/>
<path fill-rule="evenodd" clip-rule="evenodd" d="M48.4208 49.7031H50.1805C50.271 49.7031 50.344 49.7735 50.344 49.8607V51.5265C50.344 51.6137 50.271 51.6874 50.1805 51.6874H48.4208C48.3304 51.6874 48.2539 51.617 48.2539 51.5265V49.8607C48.2539 49.7735 48.3304 49.7031 48.4208 49.7031Z" fill="white"/>
<path fill-rule="evenodd" clip-rule="evenodd" d="M19.1517 53.0527H20.9114C21.0019 53.0527 21.0784 53.1198 21.0784 53.2103V54.8761C21.0784 54.9633 21.0019 55.037 20.9114 55.037H19.1517C19.0613 55.037 18.9883 54.9666 18.9883 54.8761V53.2103C18.9883 53.1231 19.0613 53.0527 19.1517 53.0527Z" fill="white"/>
<path fill-rule="evenodd" clip-rule="evenodd" d="M44.9521 52.8145H46.7118C46.8022 52.8145 46.8752 52.8848 46.8752 52.9753V54.6412C46.8752 54.7284 46.8022 54.7987 46.7118 54.7987H44.9521C44.8617 54.7987 44.7852 54.7317 44.7852 54.6412V52.9753C44.7852 52.8882 44.8617 52.8145 44.9521 52.8145Z" fill="white"/>
<path fill-rule="evenodd" clip-rule="evenodd" d="M48.4208 52.8145H50.1805C50.271 52.8145 50.344 52.8848 50.344 52.9753V54.6412C50.344 54.7284 50.271 54.7987 50.1805 54.7987H48.4208C48.3304 54.7987 48.2539 54.7317 48.2539 54.6412V52.9753C48.2539 52.8882 48.3304 52.8145 48.4208 52.8145Z" fill="white"/>
<path fill-rule="evenodd" clip-rule="evenodd" d="M44.9521 62.2305H46.7118C46.8022 62.2305 46.8752 62.3042 46.8752 62.3914V64.0572C46.8752 64.1444 46.8022 64.2148 46.7118 64.2148H44.9521C44.8617 64.2148 44.7852 64.1444 44.7852 64.0572V62.3914C44.7852 62.3042 44.8617 62.2305 44.9521 62.2305Z" fill="white"/>
<path fill-rule="evenodd" clip-rule="evenodd" d="M44.9521 59.0625H46.7118C46.8022 59.0625 46.8752 59.1329 46.8752 59.2234V60.8893C46.8752 60.973 46.8022 61.0468 46.7118 61.0468H44.9521C44.8617 61.0468 44.7852 60.973 44.7852 60.8893V59.2234C44.7852 59.1362 44.8617 59.0625 44.9521 59.0625Z" fill="white"/>
<path fill-rule="evenodd" clip-rule="evenodd" d="M44.9521 55.9277H46.7118C46.8022 55.9277 46.8752 55.9981 46.8752 56.0886V57.7545C46.8752 57.8383 46.8022 57.912 46.7118 57.912H44.9521C44.8617 57.912 44.7852 57.8383 44.7852 57.7545V56.0886C44.7852 56.0015 44.8617 55.9277 44.9521 55.9277Z" fill="white"/>
<path fill-rule="evenodd" clip-rule="evenodd" d="M48.4208 59.0625H50.1805C50.271 59.0625 50.344 59.1329 50.344 59.2234V60.8893C50.344 60.973 50.271 61.0468 50.1805 61.0468H48.4208C48.3304 61.0468 48.2539 60.973 48.2539 60.8893V59.2234C48.2539 59.1362 48.3304 59.0625 48.4208 59.0625Z" fill="white"/>
<path fill-rule="evenodd" clip-rule="evenodd" d="M48.4208 55.9277H50.1805C50.271 55.9277 50.344 55.9981 50.344 56.0886V57.7545C50.344 57.8383 50.271 57.912 50.1805 57.912H48.4208C48.3304 57.912 48.2539 57.8383 48.2539 57.7545V56.0886C48.2539 56.0015 48.3304 55.9277 48.4208 55.9277Z" fill="white"/>
<path fill-rule="evenodd" clip-rule="evenodd" d="M32.1025 17.4023H33.8622C33.9526 17.4023 34.0291 17.4694 34.0291 17.5599V19.2257C34.0291 19.3129 33.9526 19.3866 33.8622 19.3866H32.1025C32.0121 19.3866 31.9355 19.3129 31.9355 19.2257V17.5599C31.9355 17.4727 32.0121 17.4023 32.1025 17.4023Z" fill="white"/>
<path fill-rule="evenodd" clip-rule="evenodd" d="M35.5693 17.4023H37.329C37.4194 17.4023 37.4959 17.4694 37.4959 17.5599V19.2257C37.4959 19.3129 37.4194 19.3866 37.329 19.3866H35.5693C35.4789 19.3866 35.4023 19.3129 35.4023 19.2257V17.5599C35.4023 17.4727 35.4789 17.4023 35.5693 17.4023Z" fill="white"/>
<path fill-rule="evenodd" clip-rule="evenodd" d="M32.1025 20.5449H33.8622C33.9526 20.5449 34.0291 20.612 34.0291 20.7025V22.3683C34.0291 22.4555 33.9526 22.5292 33.8622 22.5292H32.1025C32.0121 22.5292 31.9355 22.4588 31.9355 22.3683V20.7025C31.9355 20.6153 32.0121 20.5449 32.1025 20.5449Z" fill="white"/>
<path fill-rule="evenodd" clip-rule="evenodd" d="M35.5693 20.5449H37.329C37.4194 20.5449 37.4959 20.612 37.4959 20.7025V22.3683C37.4959 22.4555 37.4194 22.5292 37.329 22.5292H35.5693C35.4789 22.5292 35.4023 22.4588 35.4023 22.3683V20.7025C35.4023 20.6153 35.4789 20.5449 35.5693 20.5449Z" fill="white"/>
<path fill-rule="evenodd" clip-rule="evenodd" d="M32.1025 23.8477H33.8622C33.9526 23.8477 34.0291 23.918 34.0291 24.0085V25.6744C34.0291 25.7616 33.9526 25.8319 33.8622 25.8319H32.1025C32.0121 25.8319 31.9355 25.7616 31.9355 25.6744V24.0085C31.9355 23.9214 32.0121 23.8477 32.1025 23.8477Z" fill="white"/>
<path fill-rule="evenodd" clip-rule="evenodd" d="M35.5693 23.8477H37.329C37.4194 23.8477 37.4959 23.918 37.4959 24.0085V25.6744C37.4959 25.7616 37.4194 25.8319 37.329 25.8319H35.5693C35.4789 25.8319 35.4023 25.7616 35.4023 25.6744V24.0085C35.4023 23.9214 35.4789 23.8477 35.5693 23.8477Z" fill="white"/>
<path fill-rule="evenodd" clip-rule="evenodd" d="M32.1025 26.916H33.8622C33.9526 26.916 34.0291 26.9864 34.0291 27.0736V28.7394C34.0291 28.8266 33.9526 28.9003 33.8622 28.9003H32.1025C32.0121 28.9003 31.9355 28.8299 31.9355 28.7394V27.0736C31.9355 26.9864 32.0121 26.916 32.1025 26.916Z" fill="white"/>
<path fill-rule="evenodd" clip-rule="evenodd" d="M35.5693 26.916H37.329C37.4194 26.916 37.4959 26.9864 37.4959 27.0736V28.7394C37.4959 28.8266 37.4194 28.9003 37.329 28.9003H35.5693C35.4789 28.9003 35.4023 28.8299 35.4023 28.7394V27.0736C35.4023 26.9864 35.4789 26.916 35.5693 26.916Z" fill="white"/>
<path fill-rule="evenodd" clip-rule="evenodd" d="M32.1025 29.9688H33.8622C33.9526 29.9688 34.0291 30.0358 34.0291 30.1263V31.7922C34.0291 31.8793 33.9526 31.953 33.8622 31.953H32.1025C32.0121 31.953 31.9355 31.8827 31.9355 31.7922V30.1263C31.9355 30.0425 32.0121 29.9688 32.1025 29.9688Z" fill="white"/>
<path fill-rule="evenodd" clip-rule="evenodd" d="M35.5693 29.9688H37.329C37.4194 29.9688 37.4959 30.0358 37.4959 30.1263V31.7922C37.4959 31.8793 37.4194 31.953 37.329 31.953H35.5693C35.4789 31.953 35.4023 31.8827 35.4023 31.7922V30.1263C35.4023 30.0425 35.4789 29.9688 35.5693 29.9688Z" fill="white"/>
<path fill-rule="evenodd" clip-rule="evenodd" d="M32.1025 33.0977H33.8622C33.9526 33.0977 34.0291 33.1647 34.0291 33.2552V34.9211C34.0291 35.0082 33.9526 35.0819 33.8622 35.0819H32.1025C32.0121 35.0819 31.9355 35.0082 31.9355 34.9211V33.2552C31.9355 33.168 32.0121 33.0977 32.1025 33.0977Z" fill="white"/>
<path fill-rule="evenodd" clip-rule="evenodd" d="M35.5693 33.0977H37.329C37.4194 33.0977 37.4959 33.1647 37.4959 33.2552V34.9211C37.4959 35.0082 37.4194 35.0819 37.329 35.0819H35.5693C35.4789 35.0819 35.4023 35.0082 35.4023 34.9211V33.2552C35.4023 33.168 35.4789 33.0977 35.5693 33.0977Z" fill="white"/>
<path fill-rule="evenodd" clip-rule="evenodd" d="M32.1025 36.3457H33.8622C33.9526 36.3457 34.0291 36.4194 34.0291 36.5032V38.1691C34.0291 38.2563 33.9526 38.33 33.8622 38.33H32.1025C32.0121 38.33 31.9355 38.2596 31.9355 38.1691V36.5032C31.9355 36.4194 32.0121 36.3457 32.1025 36.3457Z" fill="white"/>
<path fill-rule="evenodd" clip-rule="evenodd" d="M35.5693 36.3457H37.329C37.4194 36.3457 37.4959 36.4194 37.4959 36.5032V38.1691C37.4959 38.2563 37.4194 38.33 37.329 38.33H35.5693C35.4789 38.33 35.4023 38.2596 35.4023 38.1691V36.5032C35.4023 36.4194 35.4789 36.3457 35.5693 36.3457Z" fill="white"/>
<path fill-rule="evenodd" clip-rule="evenodd" d="M32.1025 39.4531H33.8622C33.9526 39.4531 34.0291 39.5202 34.0291 39.6107V41.2765C34.0291 41.3637 33.9526 41.4374 33.8622 41.4374H32.1025C32.0121 41.4374 31.9355 41.3637 31.9355 41.2765V39.6107C31.9355 39.5235 32.0121 39.4531 32.1025 39.4531Z" fill="white"/>
<path fill-rule="evenodd" clip-rule="evenodd" d="M35.5693 39.4531H37.329C37.4194 39.4531 37.4959 39.5202 37.4959 39.6107V41.2765C37.4959 41.3637 37.4194 41.4374 37.329 41.4374H35.5693C35.4789 41.4374 35.4023 41.3637 35.4023 41.2765V39.6107C35.4023 39.5235 35.4789 39.4531 35.5693 39.4531Z" fill="white"/>
<path fill-rule="evenodd" clip-rule="evenodd" d="M32.1025 42.7207H33.8622C33.9526 42.7207 34.0291 42.7911 34.0291 42.8782V44.5441C34.0291 44.6313 33.9526 44.705 33.8622 44.705H32.1025C32.0121 44.705 31.9355 44.6313 31.9355 44.5441V42.8782C31.9355 42.7911 32.0121 42.7207 32.1025 42.7207Z" fill="white"/>
<path fill-rule="evenodd" clip-rule="evenodd" d="M35.5693 42.7207H37.329C37.4194 42.7207 37.4959 42.7911 37.4959 42.8782V44.5441C37.4959 44.6313 37.4194 44.705 37.329 44.705H35.5693C35.4789 44.705 35.4023 44.6313 35.4023 44.5441V42.8782C35.4023 42.7911 35.4789 42.7207 35.5693 42.7207Z" fill="white"/>
<path fill-rule="evenodd" clip-rule="evenodd" d="M32.1025 45.832H33.8622C33.9526 45.832 34.0291 45.8991 34.0291 45.9896V47.6554C34.0291 47.7426 33.9526 47.8163 33.8622 47.8163H32.1025C32.0121 47.8163 31.9355 47.7459 31.9355 47.6554V45.9896C31.9355 45.9024 32.0121 45.832 32.1025 45.832Z" fill="white"/>
<path fill-rule="evenodd" clip-rule="evenodd" d="M35.5693 45.832H37.329C37.4194 45.832 37.4959 45.8991 37.4959 45.9896V47.6554C37.4959 47.7426 37.4194 47.8163 37.329 47.8163H35.5693C35.4789 47.8163 35.4023 47.7459 35.4023 47.6554V45.9896C35.4023 45.9024 35.4789 45.832 35.5693 45.832Z" fill="white"/>
<path fill-rule="evenodd" clip-rule="evenodd" d="M32.1025 48.9453H33.8622C33.9526 48.9453 34.0291 49.0157 34.0291 49.1062V50.7721C34.0291 50.8592 33.9526 50.9296 33.8622 50.9296H32.1025C32.0121 50.9296 31.9355 50.8592 31.9355 50.7721V49.1062C31.9355 49.0191 32.0121 48.9453 32.1025 48.9453Z" fill="white"/>
<path fill-rule="evenodd" clip-rule="evenodd" d="M35.5693 48.9453H37.329C37.4194 48.9453 37.4959 49.0157 37.4959 49.1062V50.7721C37.4959 50.8592 37.4194 50.9296 37.329 50.9296H35.5693C35.4789 50.9296 35.4023 50.8592 35.4023 50.7721V49.1062C35.4023 49.0191 35.4789 48.9453 35.5693 48.9453Z" fill="white"/>
<path fill-rule="evenodd" clip-rule="evenodd" d="M35.5693 52.168H37.329C37.4194 52.168 37.4959 52.2417 37.4959 52.3289V53.9947C37.4959 54.0785 37.4194 54.1523 37.329 54.1523H35.5693C35.4789 54.1523 35.4023 54.0819 35.4023 53.9947V52.3289C35.4023 52.2417 35.4789 52.168 35.5693 52.168Z" fill="white"/>
<mask id="mask0_1076_1745" style="mask-type:luminance" maskUnits="userSpaceOnUse" x="0" y="0" width="70" height="85">
<path d="M0.59375 0.5H68.8758V83.7317H0.59375V0.5Z" fill="white" stroke="white"/>
</mask>
<g mask="url(#mask0_1076_1745)">
<path fill-rule="evenodd" clip-rule="evenodd" d="M61.6984 34.5077L61.8202 34.5547C62.7 34.8731 63.7676 35.0708 64.5849 35.4295C64.9327 35.5803 65.1587 35.8987 65.1761 36.2775V40.1925L64.6962 40.0718C62.7313 39.5891 61.6845 38.1177 61.382 36.3915C61.2255 37.5981 61.3089 39.1534 61.3194 39.874C61.3507 41.8248 63.093 43.3733 64.9118 43.9432L65.1796 44.027V54.3741L69.0085 50.9854L68.9911 36.1267C68.9911 36.0429 68.9528 35.9725 68.8833 35.9323C66.5776 35.5837 63.3016 34.6116 61.3681 33.0229L61.3994 34.3938C61.4724 34.4239 61.5489 34.4541 61.6254 34.4843L61.7054 34.5144L61.6984 34.5077ZM0.108946 50.8178L4.28215 54.4914V36.3915C4.30301 36.0161 4.52558 35.701 4.87335 35.5435C5.8784 35.101 7.0608 34.8362 8.14236 34.4105L8.17713 32.8184C6.16009 34.4608 2.56766 35.5367 0.213276 35.9256C0.147201 35.9658 0.105469 36.0362 0.105469 36.1233V50.8178H0.108946ZM13.7379 52.7585L17.5842 55.7249L17.5703 22.488C17.5703 22.1026 17.7964 21.7573 18.1615 21.5998C19.2222 21.1305 20.2898 20.5842 21.3019 20.0211V17.2189C19.4552 19.3842 16.5374 21.2009 13.8527 21.9719C13.7762 22.0154 13.7275 22.0858 13.7275 22.1763L13.7379 52.7618V52.7585ZM26.3584 14.0615V47.4626L30.2742 50.4759V15.9888H39.3579V55.5472L43.2738 52.5373L43.2772 21.0669L43.2668 8.02486C43.2807 7.89413 43.2633 7.60588 43.1416 7.54889C40.8116 6.48971 37.4765 4.39146 36.1897 2.25634C35.7655 1.55246 35.2543 0.768125 34.823 0.00390625C34.3987 0.761421 33.8388 1.60944 33.4459 2.25634C32.1556 4.39481 28.8206 6.49307 26.494 7.54889C26.3723 7.60588 26.3549 7.89413 26.3688 8.02486L26.3653 14.0649H26.3584V14.0615ZM35.1186 4.55905L39.0832 6.89864C39.2536 6.99919 39.3544 7.17349 39.3544 7.36454V12.0337H30.2777V7.36454C30.2777 7.17349 30.3786 6.99919 30.549 6.89864L34.5135 4.55905C34.7013 4.4518 34.9274 4.4518 35.1151 4.55905H35.1186ZM43.2251 59.2309L39.4344 62.2174V74.5153L34.7569 79L30.3751 74.7935V57.3807L22.9398 51.4881V56.3383L26.3653 59.0532V69.6484L13.7414 59.4253V64.2117L26.3653 74.4382V76.104L34.83 84.2289L43.2738 76.1242V74.2203L55.696 64.1011C55.7551 64.0542 55.7829 63.9972 55.7829 63.9235L55.8003 22.3272C55.8003 22.2367 55.7551 22.1629 55.6751 22.1227C52.9591 21.3048 49.9126 19.4178 48.0208 17.2089V20.011C49.0328 20.5775 50.0969 21.1205 51.1611 21.5897C51.5263 21.7506 51.7523 22.0892 51.7523 22.478L51.7349 61.9962C51.7349 62.2911 51.6062 62.5526 51.3767 62.7436L43.2251 69.387V59.2275V59.2309Z" fill="white"/>
</g>
</svg>
