<svg width="56" height="56" viewBox="0 0 56 56" fill="none" xmlns="http://www.w3.org/2000/svg">
<path d="M52.9984 40.4346V47.9616C53.0013 48.6604 52.8579 49.352 52.5774 49.9923C52.2969 50.6325 51.8855 51.2072 51.3696 51.6796C50.8537 52.152 50.2446 52.5117 49.5813 52.7355C48.9181 52.9594 48.2153 53.0425 47.518 52.9796C39.782 52.1407 32.3511 49.5025 25.8223 45.277C19.748 41.4248 14.5982 36.2851 10.7383 30.223C6.48965 23.6775 3.8456 16.2252 3.02041 8.46988C2.95758 7.77605 3.0402 7.07678 3.26301 6.41657C3.48581 5.75636 3.84391 5.14968 4.31452 4.63516C4.78513 4.12065 5.35792 3.70956 5.99644 3.42808C6.63496 3.14661 7.32521 3.0009 8.02324 3.00024H15.5652C16.7852 2.98826 17.968 3.41944 18.8931 4.21343C19.8182 5.00741 20.4224 6.11002 20.5932 7.31573C20.9115 9.72454 21.5018 12.0897 22.353 14.366C22.6912 15.2641 22.7644 16.2401 22.5639 17.1783C22.3634 18.1166 21.8976 18.9779 21.2217 19.66L18.0289 22.8465C21.6077 29.1279 26.8189 34.3288 33.1128 37.9005L36.3056 34.7141C36.9891 34.0395 37.8521 33.5746 38.7922 33.3745C39.7324 33.1744 40.7103 33.2475 41.6101 33.585C43.891 34.4344 46.2608 35.0236 48.6744 35.3413C49.8956 35.5133 51.0109 36.1272 51.8082 37.0663C52.6054 38.0053 53.029 39.2041 52.9984 40.4346Z" stroke="#5C1010" stroke-width="6" stroke-linecap="round" stroke-linejoin="round"/>
</svg>
