<svg width="56" height="57" viewBox="0 0 56 57" fill="none" xmlns="http://www.w3.org/2000/svg">
<path d="M49.4919 7.32993L38.2587 3.67993C38.2587 6.3321 37.1779 8.87564 35.254 10.751C33.3301 12.6264 30.7208 13.6799 28 13.6799C25.2792 13.6799 22.6699 12.6264 20.746 10.751C18.8221 8.87564 17.7413 6.3321 17.7413 3.67993L6.50807 7.32993C5.34725 7.70692 4.36292 8.47597 3.73272 9.49829C3.10252 10.5206 2.86797 11.7288 3.07141 12.9049L4.55892 21.5799C4.65657 22.1672 4.96588 22.7013 5.43126 23.0862C5.89665 23.4711 6.48761 23.6816 7.09794 23.6799H12.612V48.6799C12.612 51.4299 14.9202 53.6799 17.7413 53.6799H38.2587C39.6191 53.6799 40.9237 53.1531 41.8857 52.2155C42.8476 51.2778 43.388 50.006 43.388 48.6799V23.6799H48.9021C49.5124 23.6816 50.1034 23.4711 50.5687 23.0862C51.0341 22.7013 51.3434 22.1672 51.4411 21.5799L52.9286 12.9049C53.132 11.7288 52.8975 10.5206 52.2673 9.49829C51.6371 8.47597 50.6527 7.70692 49.4919 7.32993Z" stroke="#5C1010" stroke-width="6" stroke-linecap="round" stroke-linejoin="round"/>
</svg>
