<svg width="56" height="57" viewBox="0 0 56 57" fill="none" xmlns="http://www.w3.org/2000/svg">
<path d="M13 17.2488H23M13 45.0265H23M33 17.2488H43M33 45.0265H43M8 3.35986L3 8.91542V50.5821C3 52.2488 4 53.3599 5.5 53.3599H10.5C12 53.3599 13 52.2488 13 50.5821V8.91542L8 3.35986ZM28 3.35986L23 8.91542V50.5821C23 52.2488 24 53.3599 25.5 53.3599H30.5C32 53.3599 33 52.2488 33 50.5821V8.91542L28 3.35986ZM48 3.35986L43 8.91542V50.5821C43 52.2488 44 53.3599 45.5 53.3599H50.5C52 53.3599 53 52.2488 53 50.5821V8.91542L48 3.35986Z" stroke="#5C1010" stroke-width="6" stroke-linecap="round" stroke-linejoin="round"/>
</svg>
