<svg width="56" height="56" viewBox="0 0 56 56" fill="none" xmlns="http://www.w3.org/2000/svg">
<path d="M18 23.5882V35.3529M28 23.5882V29.4706M38 23.5882V41.2353M8 53H48C49.3261 53 50.5979 52.3803 51.5355 51.2771C52.4732 50.1739 53 48.6777 53 47.1176V17.7059C53 16.1458 52.4732 14.6496 51.5355 13.5464C50.5979 12.4433 49.3261 11.8235 48 11.8235H28.175C27.3515 11.8185 26.5417 11.5743 25.8177 11.1125C25.0938 10.6507 24.4779 9.98565 24.025 9.17647L21.975 5.64706C21.5221 4.83788 20.9062 4.17285 20.1823 3.71106C19.4583 3.24926 18.6485 3.00501 17.825 3H8C6.67392 3 5.40215 3.61975 4.46447 4.7229C3.52678 5.82606 3 7.32226 3 8.88235V47.1176C3 50.3529 5.25 53 8 53Z" stroke="#5C1010" stroke-width="6" stroke-linecap="round" stroke-linejoin="round"/>
</svg>
