<svg width="57" height="57" viewBox="0 0 57 57" fill="none" xmlns="http://www.w3.org/2000/svg">
<path d="M34.2035 14.4764C33.7149 14.9749 33.4412 15.645 33.4412 16.343C33.4412 17.0411 33.7149 17.7112 34.2035 18.2097L38.4702 22.4764C38.9687 22.965 39.6388 23.2387 40.3369 23.2387C41.0349 23.2387 41.705 22.965 42.2035 22.4764L52.2569 12.423C53.5977 15.3862 54.0037 18.6877 53.4207 21.8874C52.8377 25.0872 51.2934 28.0333 48.9936 30.3331C46.6938 32.6329 43.7477 34.1773 40.5479 34.7603C37.3481 35.3433 34.0467 34.9373 31.0835 33.5964L12.6569 52.023C11.596 53.0839 10.1571 53.6799 8.65685 53.6799C7.15656 53.6799 5.71772 53.0839 4.65685 52.023C3.59599 50.9622 3 49.5233 3 48.023C3 46.5228 3.59599 45.0839 4.65685 44.023L23.0835 25.5964C21.7426 22.6332 21.3366 19.3318 21.9196 16.132C22.5026 12.9322 24.047 9.98613 26.3468 7.6863C28.6466 5.38648 31.5927 3.84216 34.7925 3.25916C37.9922 2.67615 41.2937 3.08215 44.2569 4.42304L34.2035 14.4764Z" stroke="#5C1010" stroke-width="6" stroke-linecap="round" stroke-linejoin="round"/>
</svg>
