<svg width="60" height="63" viewBox="0 0 60 63" fill="none" xmlns="http://www.w3.org/2000/svg">
<path d="M39 60V36C39 35.2043 38.6839 34.4413 38.1213 33.8787C37.5587 33.3161 36.7956 33 36 33H24C23.2044 33 22.4413 33.3161 21.8787 33.8787C21.3161 34.4413 21 35.2043 21 36V60M3 27C2.99979 26.1272 3.19 25.2649 3.55736 24.4731C3.92473 23.6814 4.46039 22.9794 5.127 22.416L26.127 4.419C27.21 3.50372 28.5821 3.00156 30 3.00156C31.4179 3.00156 32.79 3.50372 33.873 4.419L54.873 22.416C55.5396 22.9794 56.0753 23.6814 56.4426 24.4731C56.81 25.2649 57.0002 26.1272 57 27V54C57 55.5913 56.3679 57.1174 55.2426 58.2426C54.1174 59.3679 52.5913 60 51 60H9C7.4087 60 5.88258 59.3679 4.75736 58.2426C3.63214 57.1174 3 55.5913 3 54V27Z" stroke="#5C1010" stroke-width="6" stroke-linecap="round" stroke-linejoin="round"/>
</svg>
