<svg width="56" height="57" viewBox="0 0 56 57" fill="none" xmlns="http://www.w3.org/2000/svg">
<path d="M43 23.3599C43 18.0555 40.8929 12.9685 37.1421 9.21773C33.3914 5.467 28.3043 3.35986 23 3.35986C17.6957 3.35986 12.6086 5.467 8.85786 9.21773C5.10714 12.9685 3 18.0555 3 23.3599C3 35.8424 16.8475 48.8424 21.4975 52.8574C21.9309 53.1824 22.4582 53.3579 23 53.3574M43 53.3599V45.8599M35.5 53.3599C34.837 53.3599 34.2011 53.0965 33.7322 52.6276C33.2634 52.1588 33 51.5229 33 50.8599V40.8599C32.9999 40.4484 33.1014 40.0432 33.2955 39.6804C33.4896 39.3176 33.7702 39.0082 34.1125 38.7799L41.6125 33.7799C42.0233 33.5058 42.5061 33.3595 43 33.3595C43.4939 33.3595 43.9767 33.5058 44.3875 33.7799L51.8875 38.7799C52.2298 39.0082 52.5104 39.3176 52.7045 39.6804C52.8986 40.0432 53.0001 40.4484 53 40.8599V50.8599C53 51.5229 52.7366 52.1588 52.2678 52.6276C51.7989 53.0965 51.163 53.3599 50.5 53.3599H35.5ZM30.5 23.3599C30.5 27.502 27.1421 30.8599 23 30.8599C18.8579 30.8599 15.5 27.502 15.5 23.3599C15.5 19.2177 18.8579 15.8599 23 15.8599C27.1421 15.8599 30.5 19.2177 30.5 23.3599Z" stroke="#5C1010" stroke-width="6" stroke-linecap="round" stroke-linejoin="round"/>
</svg>
