<svg width="60" height="60" viewBox="0 0 60 60" fill="none" xmlns="http://www.w3.org/2000/svg">
<path d="M21 9V21M21 39V45M45 3V9M45 33V42M3 3V51C3 52.5913 3.63214 54.1174 4.75736 55.2426C5.88258 56.3679 7.4087 57 9 57H57M18 21H24C25.6569 21 27 22.3431 27 24V36C27 37.6569 25.6569 39 24 39H18C16.3431 39 15 37.6569 15 36V24C15 22.3431 16.3431 21 18 21ZM42 9H48C49.6569 9 51 10.3431 51 12V30C51 31.6569 49.6569 33 48 33H42C40.3431 33 39 31.6569 39 30V12C39 10.3431 40.3431 9 42 9Z" stroke="#5C1010" stroke-width="6" stroke-linecap="round" stroke-linejoin="round"/>
</svg>
