<svg width="66" height="67" viewBox="0 0 66 67" fill="none" xmlns="http://www.w3.org/2000/svg">
<path d="M33.0005 13C33.004 11.8001 32.7676 10.6116 32.305 9.5044C31.8425 8.3972 31.1633 7.39368 30.3073 6.55284C29.4513 5.71199 28.4357 5.05082 27.3204 4.60819C26.2051 4.16557 25.0126 3.95043 23.813 3.97543C22.6133 4.00044 21.4308 4.26508 20.3349 4.7538C19.239 5.24251 18.2519 5.94543 17.4317 6.82121C16.6114 7.69699 15.9746 8.72795 15.5586 9.85346C15.1426 10.979 14.9559 12.1763 15.0095 13.375M33.0005 13V52M33.0005 13C32.9969 11.8001 33.2334 10.6116 33.6959 9.5044C34.1584 8.3972 34.8376 7.39368 35.6937 6.55284C36.5497 5.71199 37.5652 5.05082 38.6805 4.60819C39.7958 4.16557 40.9883 3.95043 42.188 3.97543C43.3876 4.00044 44.5702 4.26508 45.6661 4.7538C46.7619 5.24251 47.749 5.94543 48.5693 6.82121C49.3895 7.69699 50.0263 8.72795 50.4423 9.85346C50.8583 10.979 51.045 12.1763 50.9915 13.375M15.0095 13.375C13.2461 13.8284 11.609 14.6771 10.2222 15.8569C8.83535 17.0367 7.73518 18.5166 7.005 20.1845C6.27481 21.8525 5.93375 23.6647 6.00763 25.4839C6.08152 27.3032 6.56842 29.0818 7.43147 30.685M15.0095 13.375C15.0688 14.8262 15.4785 16.2415 16.2035 17.5M7.43147 30.685C5.91401 31.9178 4.72075 33.5027 3.95548 35.3018C3.19022 37.1009 2.87614 39.0598 3.04056 41.008C3.20498 42.9561 3.84292 44.8347 4.89888 46.4801C5.95485 48.1255 7.39686 49.488 9.09947 50.449M7.43147 30.685C7.98029 30.238 8.56757 29.8435 9.18647 29.5M9.09947 50.449C8.88922 52.0757 9.01469 53.7283 9.46813 55.3046C9.92157 56.8809 10.6934 58.3475 11.7358 59.6139C12.7783 60.8802 14.0693 61.9194 15.5291 62.6673C16.989 63.4151 18.5866 63.8558 20.2234 63.962C21.8602 64.0682 23.5014 63.8378 25.0456 63.2848C26.5899 62.7319 28.0044 61.8683 29.2017 60.7473C30.3991 59.6263 31.354 58.2717 32.0074 56.7672C32.6607 55.2627 32.9987 53.6402 33.0005 52M9.09947 50.449C10.9003 51.4647 12.933 52.001 15.0005 52M33.0005 52C33.0022 53.6402 33.3402 55.2627 33.9936 56.7672C34.6469 58.2717 35.6018 59.6263 36.7992 60.7473C37.9966 61.8683 39.4111 62.7319 40.9553 63.2848C42.4995 63.8378 44.1407 64.0682 45.7775 63.962C47.4143 63.8558 49.012 63.4151 50.4718 62.6673C51.9316 61.9194 53.2226 60.8802 54.2651 59.6139C55.3076 58.3475 56.0794 56.8809 56.5328 55.3046C56.9862 53.7283 57.1117 52.0757 56.9015 50.449M50.9915 13.375C52.7549 13.8284 54.392 14.6771 55.7788 15.8569C57.1656 17.0367 58.2658 18.5166 58.9959 20.1845C59.7261 21.8525 60.0672 23.6647 59.9933 25.4839C59.9194 27.3032 59.4325 29.0818 58.5695 30.685M50.9915 13.375C50.9312 14.8265 50.5235 16.2418 49.7975 17.5M58.5695 30.685C60.0869 31.9178 61.2802 33.5027 62.0455 35.3018C62.8107 37.1009 63.1248 39.0598 62.9604 41.008C62.796 42.9561 62.158 44.8347 61.1021 46.4801C60.0461 48.1255 58.6041 49.488 56.9015 50.449M58.5695 30.685C58.0207 30.238 57.4334 29.8435 56.8145 29.5M56.9015 50.449C55.1007 51.4647 53.068 52.001 51.0005 52M42.0005 37C39.4818 36.114 37.2824 34.501 35.6804 32.365C34.0785 30.229 33.1458 27.666 33.0005 25C32.8551 27.666 31.9225 30.229 30.3205 32.365C28.7185 34.501 26.5191 36.114 24.0005 37" stroke="#5C1010" stroke-width="6" stroke-linecap="round" stroke-linejoin="round"/>
</svg>
