<svg width="56" height="57" viewBox="0 0 56 57" fill="none" xmlns="http://www.w3.org/2000/svg">
<path d="M31.4998 3.6803H12.9999C11.6739 3.6803 10.4021 4.20708 9.46442 5.14476C8.52674 6.08243 7.99996 7.35419 7.99996 8.68027V48.68C7.99996 50.006 8.52674 51.2778 9.46442 52.2155C10.4021 53.1532 11.6739 53.6799 12.9999 53.6799H42.9997C44.3258 53.6799 45.5975 53.1532 46.5352 52.2155C47.4729 51.2778 47.9997 50.006 47.9997 48.68V30.1801M3 13.6802H12.9999M3 23.6802H12.9999M3 33.6801H12.9999M3 43.68H12.9999M51.4446 12.7452C52.4405 11.7494 53 10.3987 53 8.99026C53 7.58188 52.4405 6.23117 51.4446 5.23529C50.4488 4.23941 49.0981 3.67993 47.6897 3.67993C46.2813 3.67993 44.9306 4.23941 43.9347 5.23529L31.4098 17.7652C30.8154 18.3592 30.3803 19.0935 30.1448 19.9002L28.0523 27.0751C27.9896 27.2902 27.9858 27.5183 28.0414 27.7354C28.097 27.9524 28.21 28.1506 28.3684 28.309C28.5269 28.4675 28.725 28.5804 28.9421 28.636C29.1592 28.6916 29.3872 28.6879 29.6023 28.6251L36.7772 26.5326C37.5839 26.2971 38.3182 25.862 38.9122 25.2676L51.4446 12.7452Z" stroke="#5C1010" stroke-width="6" stroke-linecap="round" stroke-linejoin="round"/>
</svg>
