<svg width="56" height="57" viewBox="0 0 56 57" fill="none" xmlns="http://www.w3.org/2000/svg">
<path d="M40.3004 16.3795L3 53.6799M40.3004 16.3795C41.0105 15.6684 41.5692 14.8207 41.9427 13.8877C42.3163 12.9547 42.497 11.9557 42.474 10.951C42.4509 9.94623 42.2246 8.95657 41.8087 8.04168C41.3927 7.1268 40.7958 6.30564 40.0538 5.62774C39.3119 4.94985 38.4403 4.42926 37.4917 4.09739C36.5431 3.76551 35.537 3.62923 34.5343 3.69675C33.5316 3.76427 32.5529 4.0342 31.6573 4.49026C30.7618 4.94631 29.9679 5.57905 29.3235 6.3503C28.6791 5.57905 27.8852 4.94631 26.9896 4.49026C26.0941 4.0342 25.1154 3.76427 24.1127 3.69675C23.1099 3.62923 22.1039 3.76551 21.1553 4.09739C20.2067 4.42926 19.3351 4.94985 18.5932 5.62774C17.8512 6.30564 17.2543 7.1268 16.8383 8.04168C16.4224 8.95657 16.1961 9.94623 16.173 10.951C16.15 11.9557 16.3307 12.9547 16.7043 13.8877C17.0778 14.8207 17.6365 15.6684 18.3466 16.3795M40.3004 16.3795C41.0116 15.6695 41.8592 15.1108 42.7922 14.7372C43.7252 14.3636 44.7242 14.1829 45.729 14.206C46.7337 14.229 47.7234 14.4553 48.6382 14.8713C49.5531 15.2872 50.3743 15.8842 51.0522 16.6261C51.7301 17.3681 52.2507 18.2396 52.5825 19.1883C52.9144 20.1369 53.0507 21.1429 52.9832 22.1456C52.9157 23.1484 52.6457 24.127 52.1897 25.0226C51.7336 25.9182 51.1009 26.7121 50.3296 27.3564C51.1009 28.0008 51.7336 28.7947 52.1897 29.6903C52.6457 30.5859 52.9157 31.5645 52.9832 32.5673C53.0507 33.57 52.9144 34.576 52.5825 35.5246C52.2507 36.4732 51.7301 37.3448 51.0522 38.0868C50.3743 38.8287 49.5531 39.4257 48.6382 39.8416C47.7234 40.2576 46.7337 40.4839 45.729 40.5069C44.7242 40.53 43.7252 40.3492 42.7922 39.9757C41.8592 39.6021 41.0116 39.0434 40.3004 38.3333M8.31734 27.3564C7.5461 26.7121 6.91336 25.9182 6.45731 25.0226C6.00125 24.127 5.73132 23.1484 5.6638 22.1456C5.59627 21.1429 5.73256 20.1369 6.06444 19.1883C6.39631 18.2396 6.9169 17.3681 7.59479 16.6261C8.27269 15.8842 9.09384 15.2872 10.0087 14.8713C10.9236 14.4553 11.9133 14.229 12.918 14.206C13.9228 14.1829 14.9218 14.3636 15.8547 14.7372C16.7877 15.1108 17.6354 15.6695 18.3466 16.3795M18.3466 16.3795L40.3004 38.3333M40.3004 38.3333C41.0105 39.0445 41.5692 39.8922 41.9427 40.8252C42.3163 41.7582 42.497 42.7572 42.474 43.7619C42.4509 44.7666 42.2246 45.7563 41.8087 46.6712C41.3927 47.5861 40.7958 48.4072 40.0538 49.0851C39.3119 49.763 38.4403 50.2836 37.4917 50.6155C36.5431 50.9474 35.537 51.0837 34.5343 51.0161C33.5316 50.9486 32.5529 50.6787 31.6573 50.2226C30.7618 49.7666 29.9679 49.1338 29.3235 48.3626C28.6791 49.1338 27.8852 49.7666 26.9896 50.2226C26.0941 50.6787 25.1154 50.9486 24.1127 51.0161C23.1099 51.0837 22.1039 50.9474 21.1553 50.6155C20.2067 50.2836 19.3351 49.763 18.5932 49.0851C17.8512 48.4072 17.2543 47.5861 16.8383 46.6712C16.4224 45.7563 16.1961 44.7666 16.173 43.7619C16.15 42.7572 16.3307 41.7582 16.7043 40.8252C17.0778 39.8922 17.6365 39.0445 18.3466 38.3333C16.891 39.6703 14.9639 40.3742 12.9892 40.2903C11.0146 40.2064 9.15414 39.3415 7.8172 37.8858C6.48026 36.4302 5.77632 34.5031 5.86024 32.5285C5.94416 30.5538 6.80907 28.6934 8.2647 27.3564" stroke="#5C1010" stroke-width="6" stroke-linecap="round" stroke-linejoin="round"/>
</svg>
