<svg width="56" height="56" viewBox="0 0 56 56" fill="none" xmlns="http://www.w3.org/2000/svg">
<path d="M28.6099 3H27.3901C25.9195 3 24.5092 3.52678 23.4694 4.46447C22.4295 5.40215 21.8454 6.67392 21.8454 8V8.45C21.8444 9.32681 21.5877 10.188 21.1011 10.9471C20.6145 11.7062 19.9151 12.3366 19.073 12.775L17.8809 13.4C17.038 13.8388 16.0818 14.0699 15.1085 14.0699C14.1352 14.0699 13.1791 13.8388 12.3362 13.4L11.9203 13.2C10.648 12.5382 9.13639 12.3586 7.7174 12.7008C6.29841 13.0429 5.08795 13.8788 4.35175 15.025L3.74183 15.975C3.00788 17.1223 2.80877 18.4854 3.18821 19.765C3.56765 21.0446 4.49462 22.1361 5.76565 22.8L6.18151 23.05C7.01953 23.4863 7.71634 24.1127 8.2027 24.8671C8.68906 25.6214 8.94803 26.4774 8.95387 27.35V28.625C8.95775 29.5061 8.70339 30.3724 8.21654 31.1363C7.7297 31.9002 7.02766 32.5345 6.18151 32.975L5.76565 33.2C4.49462 33.8639 3.56765 34.9554 3.18821 36.235C2.80877 37.5146 3.00788 38.8777 3.74183 40.025L4.35175 40.975C5.08795 42.1212 6.29841 42.9571 7.7174 43.2992C9.13639 43.6414 10.648 43.4618 11.9203 42.8L12.3362 42.6C13.1791 42.1612 14.1352 41.9301 15.1085 41.9301C16.0818 41.9301 17.038 42.1612 17.8809 42.6L19.073 43.225C19.9151 43.6634 20.6145 44.2938 21.1011 45.0529C21.5877 45.812 21.8444 46.6732 21.8454 47.55V48C21.8454 49.3261 22.4295 50.5979 23.4694 51.5355C24.5092 52.4732 25.9195 53 27.3901 53H28.6099C30.0805 53 31.4908 52.4732 32.5306 51.5355C33.5705 50.5979 34.1546 49.3261 34.1546 48V47.55C34.1556 46.6732 34.4123 45.812 34.8989 45.0529C35.3855 44.2938 36.0849 43.6634 36.927 43.225L38.1191 42.6C38.962 42.1612 39.9182 41.9301 40.8915 41.9301C41.8648 41.9301 42.8209 42.1612 43.6638 42.6L44.0797 42.8C45.352 43.4618 46.8636 43.6414 48.2826 43.2992C49.7016 42.9571 50.912 42.1212 51.6483 40.975L52.2582 40C52.9921 38.8527 53.1912 37.4896 52.8118 36.21C52.4324 34.9304 51.5054 33.8389 50.2343 33.175L49.8185 32.975C48.9723 32.5345 48.2703 31.9002 47.7835 31.1363C47.2966 30.3724 47.0423 29.5061 47.0461 28.625V27.375C47.0423 26.4939 47.2966 25.6276 47.7835 24.8637C48.2703 24.0998 48.9723 23.4655 49.8185 23.025L50.2343 22.8C51.5054 22.1361 52.4324 21.0446 52.8118 19.765C53.1912 18.4854 52.9921 17.1223 52.2582 15.975L51.6483 15.025C50.912 13.8788 49.7016 13.0429 48.2826 12.7008C46.8636 12.3586 45.352 12.5382 44.0797 13.2L43.6638 13.4C42.8209 13.8388 41.8648 14.0699 40.8915 14.0699C39.9182 14.0699 38.962 13.8388 38.1191 13.4L36.927 12.775C36.0849 12.3366 35.3855 11.7062 34.8989 10.9471C34.4123 10.188 34.1556 9.32681 34.1546 8.45V8C34.1546 6.67392 33.5705 5.40215 32.5306 4.46447C31.4908 3.52678 30.0805 3 28.6099 3Z" stroke="#5C1010" stroke-width="6" stroke-linecap="round" stroke-linejoin="round"/>
<path d="M28 35.5C32.5934 35.5 36.3171 32.1421 36.3171 28C36.3171 23.8579 32.5934 20.5 28 20.5C23.4066 20.5 19.6829 23.8579 19.6829 28C19.6829 32.1421 23.4066 35.5 28 35.5Z" stroke="#5C1010" stroke-width="6" stroke-linecap="round" stroke-linejoin="round"/>
</svg>
