<svg width="57" height="56" viewBox="0 0 57 56" fill="none" xmlns="http://www.w3.org/2000/svg">
<path d="M14.156 25.2222V36.3333C14.156 37.8068 14.7413 39.2198 15.7832 40.2617C16.8251 41.3036 18.2382 41.8889 19.7116 41.8889H30.8227M8.60048 3H19.7116C22.7798 3 25.2671 5.48731 25.2671 8.55556V19.6667C25.2671 22.7349 22.7798 25.2222 19.7116 25.2222H8.60048C5.53223 25.2222 3.04492 22.7349 3.04492 19.6667V8.55556C3.04492 5.48731 5.53223 3 8.60048 3ZM36.3783 30.7778H47.4894C50.5576 30.7778 53.0449 33.2651 53.0449 36.3333V47.4444C53.0449 50.5127 50.5576 53 47.4894 53H36.3783C33.31 53 30.8227 50.5127 30.8227 47.4444V36.3333C30.8227 33.2651 33.31 30.7778 36.3783 30.7778Z" stroke="#5C1010" stroke-width="6" stroke-linecap="round" stroke-linejoin="round"/>
</svg>
