<svg width="64" height="88" viewBox="0 0 64 88" fill="none" xmlns="http://www.w3.org/2000/svg">
<path fill-rule="evenodd" clip-rule="evenodd" d="M16.4688 0.25C15.9941 0.250131 15.5257 0.358397 15.0991 0.56658C14.6725 0.774763 14.2989 1.07739 14.0067 1.4515C13.7146 1.8256 13.5114 2.26135 13.4128 2.72567C13.3142 3.18999 13.3226 3.67068 13.4375 4.13125L14.0313 6.5H3.96875C3.13995 6.5 2.34509 6.82924 1.75904 7.41529C1.17299 8.00134 0.84375 8.7962 0.84375 9.625V84.625C0.84375 85.4538 1.17299 86.2487 1.75904 86.8347C2.34509 87.4208 3.13995 87.75 3.96875 87.75H60.2188C61.0476 87.75 61.8424 87.4208 62.4285 86.8347C63.0145 86.2487 63.3438 85.4538 63.3438 84.625V9.625C63.3438 8.7962 63.0145 8.00134 62.4285 7.41529C61.8424 6.82924 61.0476 6.5 60.2188 6.5H50.1563L50.75 4.13125C50.8649 3.67068 50.8733 3.18999 50.7747 2.72567C50.676 2.26135 50.4729 1.8256 50.1808 1.4515C49.8886 1.07739 49.515 0.774763 49.0884 0.56658C48.6618 0.358397 48.1934 0.250131 47.7188 0.25H16.4688ZM20.4688 6.5H43.7187L42.1562 12.75H22.0312L20.4688 6.5ZM35.2188 34.625V37.75H13.3438V44H35.2188V47.125H41.4688V44H50.8438V37.75H41.4688V34.625H35.2188ZM22.7188 53.375V56.5H13.3438V62.75H22.7188V65.875H28.9688V62.75H50.8438V56.5H28.9688V53.375H22.7188Z" fill="#5C1010"/>
</svg>
