<svg width="101" height="100" viewBox="0 0 101 100" fill="none" xmlns="http://www.w3.org/2000/svg">
<path d="M36.5527 95.8327C34.4694 95.8327 32.6472 95.1549 31.0861 93.7993C29.525 92.4438 28.6041 90.7257 28.3236 88.6452L20.9277 33.3327H79.2611L71.8652 88.6452C71.5875 90.7285 70.6666 92.448 69.1027 93.8035C67.5388 95.1591 65.7166 95.8355 63.6361 95.8327H36.5527ZM50.0944 66.666C53.5666 66.666 56.518 65.4507 58.9486 63.0202C61.3791 60.5896 62.5944 57.6382 62.5944 54.166V45.8327H54.2611V54.166C54.2611 55.3466 53.8611 56.3368 53.0611 57.1368C52.2611 57.9368 51.2722 58.3355 50.0944 58.3327C48.9166 58.3299 47.9277 57.9299 47.1277 57.1327C46.3277 56.3355 45.9277 55.3466 45.9277 54.166V45.8327H37.5944V54.166C37.5944 57.6382 38.8097 60.5896 41.2402 63.0202C43.6708 65.4507 46.6222 66.666 50.0944 66.666ZM62.5944 29.166C60.8583 29.166 59.3833 28.5591 58.1694 27.3452C56.9555 26.1313 56.3472 24.6549 56.3444 22.916C56.3416 21.1771 56.95 19.7021 58.1694 18.491C59.3888 17.2799 60.8638 16.6716 62.5944 16.666C64.325 16.6605 65.8013 17.2688 67.0236 18.491C68.2458 19.7132 68.8527 21.1882 68.8444 22.916C68.8361 24.6438 68.2291 26.1202 67.0236 27.3452C65.818 28.5702 64.3416 29.1771 62.5944 29.166ZM41.7611 24.9993C38.8444 24.9993 36.3791 23.9924 34.3652 21.9785C32.3513 19.9646 31.3444 17.4993 31.3444 14.5827C31.3444 11.666 32.3513 9.20074 34.3652 7.18685C36.3791 5.17296 38.8444 4.16602 41.7611 4.16602C44.6777 4.16602 47.143 5.17296 49.1569 7.18685C51.1708 9.20074 52.1777 11.666 52.1777 14.5827C52.1777 17.4993 51.1708 19.9646 49.1569 21.9785C47.143 23.9924 44.6777 24.9993 41.7611 24.9993Z" fill="#5C1010"/>
</svg>
