<svg width="109" height="108" viewBox="0 0 109 108" fill="none" xmlns="http://www.w3.org/2000/svg">
<path d="M83.0944 74.666H74.7611V70.4994H41.4277V74.666H33.0944V70.4994H16.4277V91.3327H99.7611V70.4994H83.0944V74.666ZM91.4277 41.3327H78.9277V32.9993C78.9277 28.416 75.1777 24.666 70.5944 24.666H45.5944C41.0111 24.666 37.2611 28.416 37.2611 32.9993V41.3327H24.7611C20.1777 41.3327 16.4277 45.0827 16.4277 49.666V66.3327H33.0944V57.9994H41.4277V66.3327H74.7611V57.9994H83.0944V66.3327H99.7611V49.666C99.7611 45.0827 96.0111 41.3327 91.4277 41.3327ZM70.5944 41.3327H45.5944V32.9993H70.5944V41.3327Z" fill="#5C1010"/>
</svg>
