<svg width="21" height="20" viewBox="0 0 21 20" fill="none" xmlns="http://www.w3.org/2000/svg">
<path d="M11.1213 0C12.2463 0.003 12.8173 0.009 13.3103 0.023L13.5043 0.03C13.7283 0.038 13.9493 0.0479999 14.2163 0.0599999C15.2803 0.11 16.0063 0.278 16.6433 0.525C17.3033 0.779 17.8593 1.123 18.4153 1.678C18.924 2.17773 19.3175 2.78247 19.5683 3.45C19.8153 4.087 19.9833 4.813 20.0333 5.878C20.0453 6.144 20.0553 6.365 20.0633 6.59L20.0693 6.784C20.0843 7.276 20.0903 7.847 20.0923 8.972L20.0933 9.718V11.028C20.0958 11.7574 20.0881 12.4868 20.0703 13.216L20.0643 13.41C20.0563 13.635 20.0463 13.856 20.0343 14.122C19.9843 15.187 19.8143 15.912 19.5683 16.55C19.3175 17.2175 18.924 17.8223 18.4153 18.322C17.9156 18.8307 17.3109 19.2242 16.6433 19.475C16.0063 19.722 15.2803 19.89 14.2163 19.94L13.5043 19.97L13.3103 19.976C12.8173 19.99 12.2463 19.997 11.1213 19.999L10.3753 20H9.06634C8.3366 20.0026 7.60687 19.9949 6.87734 19.977L6.68334 19.971C6.44595 19.962 6.20862 19.9517 5.97134 19.94C4.90734 19.89 4.18134 19.722 3.54334 19.475C2.87617 19.2241 2.27179 18.8306 1.77234 18.322C1.26329 17.8224 0.869451 17.2176 0.618342 16.55C0.371342 15.913 0.203342 15.187 0.153342 14.122L0.123342 13.41L0.118342 13.216C0.0999084 12.4868 0.0915741 11.7574 0.0933422 11.028V8.972C0.0905743 8.2426 0.0979085 7.5132 0.115342 6.784L0.122342 6.59C0.130342 6.365 0.140342 6.144 0.152342 5.878C0.202342 4.813 0.370342 4.088 0.617342 3.45C0.869037 2.7822 1.26357 2.17744 1.77334 1.678C2.2725 1.16955 2.87653 0.776074 3.54334 0.525C4.18134 0.278 4.90634 0.11 5.97134 0.0599999C6.23734 0.0479999 6.45934 0.038 6.68334 0.03L6.87734 0.0239999C7.60653 0.00623271 8.33594 -0.0014347 9.06534 0.000999928L11.1213 0ZM10.0933 5C8.76726 5 7.49549 5.52678 6.55781 6.46447C5.62013 7.40215 5.09334 8.67392 5.09334 10C5.09334 11.3261 5.62013 12.5979 6.55781 13.5355C7.49549 14.4732 8.76726 15 10.0933 15C11.4194 15 12.6912 14.4732 13.6289 13.5355C14.5666 12.5979 15.0933 11.3261 15.0933 10C15.0933 8.67392 14.5666 7.40215 13.6289 6.46447C12.6912 5.52678 11.4194 5 10.0933 5ZM10.0933 7C10.4873 6.99993 10.8774 7.07747 11.2414 7.22817C11.6054 7.37887 11.9362 7.5998 12.2148 7.87833C12.4934 8.15686 12.7145 8.48754 12.8653 8.85149C13.0161 9.21544 13.0938 9.60553 13.0938 9.9995C13.0939 10.3935 13.0164 10.7836 12.8657 11.1476C12.715 11.5116 12.494 11.8423 12.2155 12.121C11.937 12.3996 11.6063 12.6206 11.2424 12.7714C10.8784 12.9223 10.4883 12.9999 10.0943 13C9.29869 13 8.53563 12.6839 7.97302 12.1213C7.41041 11.5587 7.09434 10.7956 7.09434 10C7.09434 9.20435 7.41041 8.44129 7.97302 7.87868C8.53563 7.31607 9.29869 7 10.0943 7M15.3443 3.5C15.0128 3.5 14.6949 3.6317 14.4605 3.86612C14.226 4.10054 14.0943 4.41848 14.0943 4.75C14.0943 5.08152 14.226 5.39946 14.4605 5.63388C14.6949 5.8683 15.0128 6 15.3443 6C15.6759 6 15.9938 5.8683 16.2282 5.63388C16.4626 5.39946 16.5943 5.08152 16.5943 4.75C16.5943 4.41848 16.4626 4.10054 16.2282 3.86612C15.9938 3.6317 15.6759 3.5 15.3443 3.5Z" fill="#FFFBFC"/>
</svg>
