<svg width="18" height="18" viewBox="0 0 18 18" fill="none" xmlns="http://www.w3.org/2000/svg">
<path d="M15.25 17.75C16.6307 17.75 17.75 16.6307 17.75 15.25V8.43849L12.0177 11.7901L14.9213 13.3536C15.2252 13.5172 15.3389 13.8962 15.1753 14.2002C15.0116 14.5041 14.6326 14.6178 14.3287 14.4541L9.59263 11.904C9.22265 11.7047 8.77735 11.7047 8.40738 11.904L3.67131 14.4541C3.36739 14.6178 2.98835 14.5041 2.82471 14.2002C2.66106 13.8962 2.77477 13.5172 3.07869 13.3535L5.98232 11.7901L0.25 8.43849V15.25C0.25 16.6307 1.36929 17.75 2.75 17.75L15.25 17.75Z" fill="#0F172A"/>
<path d="M0.25 6.99051V6.3699C0.25 5.45019 0.754976 4.60476 1.56475 4.16872L7.81475 0.803339C8.55469 0.404909 9.44531 0.404909 10.1852 0.803339L16.4352 4.16872C17.245 4.60476 17.75 5.4502 17.75 6.3699V6.99051L10.7285 11.0959L10.1853 10.8034C9.44531 10.4049 8.55469 10.4049 7.81475 10.8034L7.27154 11.0959L0.25 6.99051Z" fill="#0F172A"/>
</svg>
