<svg width="45" height="55" viewBox="0 0 45 55" fill="none" xmlns="http://www.w3.org/2000/svg">
<path fill-rule="evenodd" clip-rule="evenodd" d="M4.15605 25.0137H5.27582C5.33103 25.0137 5.37962 25.0562 5.37962 25.1137V26.1717C5.37962 26.2271 5.33103 26.2739 5.27582 26.2739H4.15605C4.09863 26.2739 4.05225 26.2271 4.05225 26.1717V25.1137C4.05225 25.0584 4.09863 25.0137 4.15605 25.0137Z" fill="#5C1010"/>
<path fill-rule="evenodd" clip-rule="evenodd" d="M12.1971 16.3906H13.3146C13.372 16.3906 13.4206 16.4353 13.4206 16.4907V17.5487C13.4206 17.6041 13.372 17.6509 13.3146 17.6509H12.1971C12.1396 17.6509 12.0933 17.6062 12.0933 17.5487V16.4907C12.0933 16.4353 12.1396 16.3906 12.1971 16.3906Z" fill="#5C1010"/>
<path fill-rule="evenodd" clip-rule="evenodd" d="M28.5826 16.2422H29.7001C29.7576 16.2422 29.8039 16.289 29.8039 16.3444V17.4024C29.8039 17.4577 29.7576 17.5024 29.7001 17.5024H28.5826C28.5252 17.5024 28.4766 17.4599 28.4766 17.4024V16.3444C28.4766 16.289 28.5252 16.2422 28.5826 16.2422Z" fill="#5C1010"/>
<path fill-rule="evenodd" clip-rule="evenodd" d="M6.35722 25.0137H7.47699C7.53221 25.0137 7.58079 25.0562 7.58079 25.1137V26.1717C7.58079 26.2271 7.53221 26.2739 7.47699 26.2739H6.35722C6.2998 26.2739 6.25342 26.2271 6.25342 26.1717V25.1137C6.25342 25.0584 6.2998 25.0137 6.35722 25.0137Z" fill="#5C1010"/>
<path fill-rule="evenodd" clip-rule="evenodd" d="M14.4017 16.3906H15.5214C15.5766 16.3906 15.6252 16.4353 15.6252 16.4907V17.5487C15.6252 17.6041 15.5766 17.6509 15.5214 17.6509H14.4017C14.3442 17.6509 14.2979 17.6062 14.2979 17.5487V16.4907C14.2979 16.4353 14.3442 16.3906 14.4017 16.3906Z" fill="#5C1010"/>
<path fill-rule="evenodd" clip-rule="evenodd" d="M30.7847 16.2422H31.9023C31.9597 16.2422 32.0061 16.289 32.0061 16.3444V17.4024C32.0061 17.4577 31.9597 17.5024 31.9023 17.5024H30.7847C30.7273 17.5024 30.6787 17.4599 30.6787 17.4024V16.3444C30.6787 16.289 30.7273 16.2422 30.7847 16.2422Z" fill="#5C1010"/>
<path fill-rule="evenodd" clip-rule="evenodd" d="M4.15605 27.0078H5.27582C5.33103 27.0078 5.37962 27.0525 5.37962 27.1079V28.1659C5.37962 28.2212 5.33103 28.2681 5.27582 28.2681H4.15605C4.09863 28.2681 4.05225 28.2234 4.05225 28.1659V27.1079C4.05225 27.0525 4.09863 27.0078 4.15605 27.0078Z" fill="#5C1010"/>
<path fill-rule="evenodd" clip-rule="evenodd" d="M12.1971 18.3848H13.3146C13.372 18.3848 13.4206 18.4273 13.4206 18.4848V19.5428C13.4206 19.5982 13.372 19.645 13.3146 19.645H12.1971C12.1396 19.645 12.0933 19.5982 12.0933 19.5428V18.4848C12.0933 18.4295 12.1396 18.3848 12.1971 18.3848Z" fill="#5C1010"/>
<path fill-rule="evenodd" clip-rule="evenodd" d="M28.5826 18.2363H29.7001C29.7576 18.2363 29.8039 18.281 29.8039 18.3385V19.3965C29.8039 19.4519 29.7576 19.4966 29.7001 19.4966H28.5826C28.5252 19.4966 28.4766 19.4519 28.4766 19.3965V18.3385C28.4766 18.2832 28.5252 18.2363 28.5826 18.2363Z" fill="#5C1010"/>
<path fill-rule="evenodd" clip-rule="evenodd" d="M6.35722 27.0078H7.47699C7.53221 27.0078 7.58079 27.0525 7.58079 27.1079V28.1659C7.58079 28.2212 7.53221 28.2681 7.47699 28.2681H6.35722C6.2998 28.2681 6.25342 28.2234 6.25342 28.1659V27.1079C6.25342 27.0525 6.2998 27.0078 6.35722 27.0078Z" fill="#5C1010"/>
<path fill-rule="evenodd" clip-rule="evenodd" d="M14.4017 18.3848H15.5214C15.5766 18.3848 15.6252 18.4273 15.6252 18.4848V19.5428C15.6252 19.5982 15.5766 19.645 15.5214 19.645H14.4017C14.3442 19.645 14.2979 19.5982 14.2979 19.5428V18.4848C14.2979 18.4295 14.3442 18.3848 14.4017 18.3848Z" fill="#5C1010"/>
<path fill-rule="evenodd" clip-rule="evenodd" d="M30.7847 18.2363H31.9023C31.9597 18.2363 32.0061 18.281 32.0061 18.3385V19.3965C32.0061 19.4519 31.9597 19.4966 31.9023 19.4966H30.7847C30.7273 19.4966 30.6787 19.4519 30.6787 19.3965V18.3385C30.6787 18.2832 30.7273 18.2363 30.7847 18.2363Z" fill="#5C1010"/>
<path fill-rule="evenodd" clip-rule="evenodd" d="M4.15605 29.1074H5.27582C5.33103 29.1074 5.37962 29.1521 5.37962 29.2096V30.2676C5.37962 30.3208 5.33103 30.3677 5.27582 30.3677H4.15605C4.09863 30.3677 4.05225 30.3208 4.05225 30.2676V29.2096C4.05225 29.1543 4.09863 29.1074 4.15605 29.1074Z" fill="#5C1010"/>
<path fill-rule="evenodd" clip-rule="evenodd" d="M12.1971 20.4805H13.3146C13.372 20.4805 13.4206 20.5273 13.4206 20.5827V21.6407C13.4206 21.696 13.372 21.7407 13.3146 21.7407H12.1971C12.1396 21.7407 12.0933 21.6982 12.0933 21.6407V20.5827C12.0933 20.5273 12.1396 20.4805 12.1971 20.4805Z" fill="#5C1010"/>
<path fill-rule="evenodd" clip-rule="evenodd" d="M28.5826 20.334H29.7001C29.7576 20.334 29.8039 20.3808 29.8039 20.4362V21.4942C29.8039 21.5474 29.7576 21.5942 29.7001 21.5942H28.5826C28.5252 21.5942 28.4766 21.5495 28.4766 21.4942V20.4362C28.4766 20.3808 28.5252 20.334 28.5826 20.334Z" fill="#5C1010"/>
<path fill-rule="evenodd" clip-rule="evenodd" d="M6.35722 29.1074H7.47699C7.53221 29.1074 7.58079 29.1521 7.58079 29.2096V30.2676C7.58079 30.3208 7.53221 30.3677 7.47699 30.3677H6.35722C6.2998 30.3677 6.25342 30.3208 6.25342 30.2676V29.2096C6.25342 29.1543 6.2998 29.1074 6.35722 29.1074Z" fill="#5C1010"/>
<path fill-rule="evenodd" clip-rule="evenodd" d="M14.4017 20.4805H15.5214C15.5766 20.4805 15.6252 20.5273 15.6252 20.5827V21.6407C15.6252 21.696 15.5766 21.7407 15.5214 21.7407H14.4017C14.3442 21.7407 14.2979 21.6982 14.2979 21.6407V20.5827C14.2979 20.5273 14.3442 20.4805 14.4017 20.4805Z" fill="#5C1010"/>
<path fill-rule="evenodd" clip-rule="evenodd" d="M30.7847 20.334H31.9023C31.9597 20.334 32.0061 20.3808 32.0061 20.4362V21.4942C32.0061 21.5474 31.9597 21.5942 31.9023 21.5942H30.7847C30.7273 21.5942 30.6787 21.5495 30.6787 21.4942V20.4362C30.6787 20.3808 30.7273 20.334 30.7847 20.334Z" fill="#5C1010"/>
<path fill-rule="evenodd" clip-rule="evenodd" d="M4.15605 31.0508H5.27582C5.33103 31.0508 5.37962 31.0976 5.37962 31.153V32.211C5.37962 32.2663 5.33103 32.311 5.27582 32.311H4.15605C4.09863 32.311 4.05225 32.2663 4.05225 32.211V31.153C4.05225 31.0976 4.09863 31.0508 4.15605 31.0508Z" fill="#5C1010"/>
<path fill-rule="evenodd" clip-rule="evenodd" d="M12.1971 22.4297H13.3146C13.372 22.4297 13.4206 22.4744 13.4206 22.5297V23.5878C13.4206 23.6431 13.372 23.6899 13.3146 23.6899H12.1971C12.1396 23.6899 12.0933 23.6452 12.0933 23.5878V22.5297C12.0933 22.4744 12.1396 22.4297 12.1971 22.4297Z" fill="#5C1010"/>
<path fill-rule="evenodd" clip-rule="evenodd" d="M28.5826 22.2812H29.7001C29.7576 22.2812 29.8039 22.326 29.8039 22.3834V23.4415C29.8039 23.4968 29.7576 23.5415 29.7001 23.5415H28.5826C28.5252 23.5415 28.4766 23.4989 28.4766 23.4415V22.3834C28.4766 22.3281 28.5252 22.2812 28.5826 22.2812Z" fill="#5C1010"/>
<path fill-rule="evenodd" clip-rule="evenodd" d="M6.35722 31.0508H7.47699C7.53221 31.0508 7.58079 31.0976 7.58079 31.153V32.211C7.58079 32.2663 7.53221 32.311 7.47699 32.311H6.35722C6.2998 32.311 6.25342 32.2663 6.25342 32.211V31.153C6.25342 31.0976 6.2998 31.0508 6.35722 31.0508Z" fill="#5C1010"/>
<path fill-rule="evenodd" clip-rule="evenodd" d="M14.4017 22.4297H15.5214C15.5766 22.4297 15.6252 22.4744 15.6252 22.5297V23.5878C15.6252 23.6431 15.5766 23.6899 15.5214 23.6899H14.4017C14.3442 23.6899 14.2979 23.6452 14.2979 23.5878V22.5297C14.2979 22.4744 14.3442 22.4297 14.4017 22.4297Z" fill="#5C1010"/>
<path fill-rule="evenodd" clip-rule="evenodd" d="M30.7847 22.2812H31.9023C31.9597 22.2812 32.0061 22.326 32.0061 22.3834V23.4415C32.0061 23.4968 31.9597 23.5415 31.9023 23.5415H30.7847C30.7273 23.5415 30.6787 23.4989 30.6787 23.4415V22.3834C30.6787 22.3281 30.7273 22.2812 30.7847 22.2812Z" fill="#5C1010"/>
<path fill-rule="evenodd" clip-rule="evenodd" d="M4.15605 32.9961H5.27582C5.33103 32.9961 5.37962 33.0408 5.37962 33.0961V34.1542C5.37962 34.2095 5.33103 34.2564 5.27582 34.2564H4.15605C4.09863 34.2564 4.05225 34.2116 4.05225 34.1542V33.0961C4.05225 33.0408 4.09863 32.9961 4.15605 32.9961Z" fill="#5C1010"/>
<path fill-rule="evenodd" clip-rule="evenodd" d="M12.1971 24.3691H13.3146C13.372 24.3691 13.4206 24.4117 13.4206 24.4692V25.5272C13.4206 25.5826 13.372 25.6294 13.3146 25.6294H12.1971C12.1396 25.6294 12.0933 25.5847 12.0933 25.5272V24.4692C12.0933 24.416 12.1396 24.3691 12.1971 24.3691Z" fill="#5C1010"/>
<path fill-rule="evenodd" clip-rule="evenodd" d="M28.5826 24.2207H29.7001C29.7576 24.2207 29.8039 24.2633 29.8039 24.3208V25.3788C29.8039 25.4341 29.7576 25.481 29.7001 25.481H28.5826C28.5252 25.481 28.4766 25.4363 28.4766 25.3788V24.3208C28.4766 24.2654 28.5252 24.2207 28.5826 24.2207Z" fill="#5C1010"/>
<path fill-rule="evenodd" clip-rule="evenodd" d="M6.35722 32.9961H7.47699C7.53221 32.9961 7.58079 33.0408 7.58079 33.0961V34.1542C7.58079 34.2095 7.53221 34.2564 7.47699 34.2564H6.35722C6.2998 34.2564 6.25342 34.2116 6.25342 34.1542V33.0961C6.25342 33.0408 6.2998 32.9961 6.35722 32.9961Z" fill="#5C1010"/>
<path fill-rule="evenodd" clip-rule="evenodd" d="M14.4017 24.3691H15.5214C15.5766 24.3691 15.6252 24.4117 15.6252 24.4692V25.5272C15.6252 25.5826 15.5766 25.6294 15.5214 25.6294H14.4017C14.3442 25.6294 14.2979 25.5847 14.2979 25.5272V24.4692C14.2979 24.416 14.3442 24.3691 14.4017 24.3691Z" fill="#5C1010"/>
<path fill-rule="evenodd" clip-rule="evenodd" d="M30.7847 24.2207H31.9023C31.9597 24.2207 32.0061 24.2633 32.0061 24.3208V25.3788C32.0061 25.4341 31.9597 25.481 31.9023 25.481H30.7847C30.7273 25.481 30.6787 25.4363 30.6787 25.3788V24.3208C30.6787 24.2654 30.7273 24.2207 30.7847 24.2207Z" fill="#5C1010"/>
<path fill-rule="evenodd" clip-rule="evenodd" d="M36.795 28.8398H37.9125C37.97 28.8398 38.0186 28.8867 38.0186 28.942V30C38.0186 30.0533 37.97 30.1001 37.9125 30.1001H36.795C36.7376 30.1001 36.689 30.0575 36.689 30V28.942C36.689 28.8867 36.7376 28.8398 36.795 28.8398Z" fill="#5C1010"/>
<path fill-rule="evenodd" clip-rule="evenodd" d="M4.15605 34.9824H5.27582C5.33103 34.9824 5.37962 35.025 5.37962 35.0825V36.1405C5.37962 36.1958 5.33103 36.2427 5.27582 36.2427H4.15605C4.09863 36.2427 4.05225 36.1958 4.05225 36.1405V35.0825C4.05225 35.0271 4.09863 34.9824 4.15605 34.9824Z" fill="#5C1010"/>
<path fill-rule="evenodd" clip-rule="evenodd" d="M12.1971 26.3594H13.3146C13.372 26.3594 13.4206 26.4062 13.4206 26.4594V27.5175C13.4206 27.5728 13.372 27.6196 13.3146 27.6196H12.1971C12.1396 27.6196 12.0933 27.5749 12.0933 27.5175V26.4594C12.0933 26.4062 12.1396 26.3594 12.1971 26.3594Z" fill="#5C1010"/>
<path fill-rule="evenodd" clip-rule="evenodd" d="M28.5826 26.2109H29.7001C29.7576 26.2109 29.8039 26.2556 29.8039 26.311V27.369C29.8039 27.4244 29.7576 27.4712 29.7001 27.4712H28.5826C28.5252 27.4712 28.4766 27.4265 28.4766 27.369V26.311C28.4766 26.2556 28.5252 26.2109 28.5826 26.2109Z" fill="#5C1010"/>
<path fill-rule="evenodd" clip-rule="evenodd" d="M38.9964 28.8398H40.1139C40.1714 28.8398 40.22 28.8867 40.22 28.942V30C40.22 30.0533 40.1714 30.1001 40.1139 30.1001H38.9964C38.939 30.1001 38.8926 30.0575 38.8926 30V28.942C38.8926 28.8867 38.939 28.8398 38.9964 28.8398Z" fill="#5C1010"/>
<path fill-rule="evenodd" clip-rule="evenodd" d="M6.35722 34.9824H7.47699C7.53221 34.9824 7.58079 35.025 7.58079 35.0825V36.1405C7.58079 36.1958 7.53221 36.2427 7.47699 36.2427H6.35722C6.2998 36.2427 6.25342 36.1958 6.25342 36.1405V35.0825C6.25342 35.0271 6.2998 34.9824 6.35722 34.9824Z" fill="#5C1010"/>
<path fill-rule="evenodd" clip-rule="evenodd" d="M14.4017 26.3594H15.5214C15.5766 26.3594 15.6252 26.4062 15.6252 26.4594V27.5175C15.6252 27.5728 15.5766 27.6196 15.5214 27.6196H14.4017C14.3442 27.6196 14.2979 27.5749 14.2979 27.5175V26.4594C14.2979 26.4062 14.3442 26.3594 14.4017 26.3594Z" fill="#5C1010"/>
<path fill-rule="evenodd" clip-rule="evenodd" d="M30.7847 26.2109H31.9023C31.9597 26.2109 32.0061 26.2556 32.0061 26.311V27.369C32.0061 27.4244 31.9597 27.4712 31.9023 27.4712H30.7847C30.7273 27.4712 30.6787 27.4265 30.6787 27.369V26.311C30.6787 26.2556 30.7273 26.2109 30.7847 26.2109Z" fill="#5C1010"/>
<path fill-rule="evenodd" clip-rule="evenodd" d="M36.795 30.8105H37.9125C37.97 30.8105 38.0186 30.8553 38.0186 30.9106V31.9686C38.0186 32.024 37.97 32.0708 37.9125 32.0708H36.795C36.7376 32.0708 36.689 32.024 36.689 31.9686V30.9106C36.689 30.8574 36.7376 30.8105 36.795 30.8105Z" fill="#5C1010"/>
<path fill-rule="evenodd" clip-rule="evenodd" d="M12.1971 28.4238H13.3146C13.372 28.4238 13.4206 28.4707 13.4206 28.5239V29.5819C13.4206 29.6373 13.372 29.6841 13.3146 29.6841H12.1971C12.1396 29.6841 12.0933 29.6394 12.0933 29.5819V28.5239C12.0933 28.4707 12.1396 28.4238 12.1971 28.4238Z" fill="#5C1010"/>
<path fill-rule="evenodd" clip-rule="evenodd" d="M28.5826 28.2754H29.7001C29.7576 28.2754 29.8039 28.3201 29.8039 28.3754V29.4335C29.8039 29.4888 29.7576 29.5357 29.7001 29.5357H28.5826C28.5252 29.5357 28.4766 29.4909 28.4766 29.4335V28.3754C28.4766 28.3201 28.5252 28.2754 28.5826 28.2754Z" fill="#5C1010"/>
<path fill-rule="evenodd" clip-rule="evenodd" d="M38.9964 30.8105H40.1139C40.1714 30.8105 40.22 30.8553 40.22 30.9106V31.9686C40.22 32.024 40.1714 32.0708 40.1139 32.0708H38.9964C38.939 32.0708 38.8926 32.024 38.8926 31.9686V30.9106C38.8926 30.8574 38.939 30.8105 38.9964 30.8105Z" fill="#5C1010"/>
<path fill-rule="evenodd" clip-rule="evenodd" d="M14.4017 28.4238H15.5214C15.5766 28.4238 15.6252 28.4707 15.6252 28.5239V29.5819C15.6252 29.6373 15.5766 29.6841 15.5214 29.6841H14.4017C14.3442 29.6841 14.2979 29.6394 14.2979 29.5819V28.5239C14.2979 28.4707 14.3442 28.4238 14.4017 28.4238Z" fill="#5C1010"/>
<path fill-rule="evenodd" clip-rule="evenodd" d="M30.7847 28.2754H31.9023C31.9597 28.2754 32.0061 28.3201 32.0061 28.3754V29.4335C32.0061 29.4888 31.9597 29.5357 31.9023 29.5357H30.7847C30.7273 29.5357 30.6787 29.4909 30.6787 29.4335V28.3754C30.6787 28.3201 30.7273 28.2754 30.7847 28.2754Z" fill="#5C1010"/>
<path fill-rule="evenodd" clip-rule="evenodd" d="M36.795 32.877H37.9125C37.97 32.877 38.0186 32.9238 38.0186 32.9791V34.035C38.0186 34.0904 37.97 34.1372 37.9125 34.1372H36.795C36.7376 34.1372 36.689 34.0925 36.689 34.035V32.9791C36.689 32.9238 36.7376 32.877 36.795 32.877Z" fill="#5C1010"/>
<path fill-rule="evenodd" clip-rule="evenodd" d="M12.1971 30.3965H13.3146C13.372 30.3965 13.4206 30.4391 13.4206 30.4965V31.5546C13.4206 31.6099 13.372 31.6567 13.3146 31.6567H12.1971C12.1396 31.6567 12.0933 31.6099 12.0933 31.5546V30.4965C12.0933 30.4412 12.1396 30.3965 12.1971 30.3965Z" fill="#5C1010"/>
<path fill-rule="evenodd" clip-rule="evenodd" d="M28.5826 30.2461H29.7001C29.7576 30.2461 29.8039 30.2929 29.8039 30.3483V31.4063C29.8039 31.4616 29.7576 31.5064 29.7001 31.5064H28.5826C28.5252 31.5064 28.4766 31.4638 28.4766 31.4063V30.3483C28.4766 30.2929 28.5252 30.2461 28.5826 30.2461Z" fill="#5C1010"/>
<path fill-rule="evenodd" clip-rule="evenodd" d="M38.9964 32.877H40.1139C40.1714 32.877 40.22 32.9238 40.22 32.9791V34.035C40.22 34.0904 40.1714 34.1372 40.1139 34.1372H38.9964C38.939 34.1372 38.8926 34.0925 38.8926 34.035V32.9791C38.8926 32.9238 38.939 32.877 38.9964 32.877Z" fill="#5C1010"/>
<path fill-rule="evenodd" clip-rule="evenodd" d="M14.4017 30.3965H15.5214C15.5766 30.3965 15.6252 30.4391 15.6252 30.4965V31.5546C15.6252 31.6099 15.5766 31.6567 15.5214 31.6567H14.4017C14.3442 31.6567 14.2979 31.6099 14.2979 31.5546V30.4965C14.2979 30.4412 14.3442 30.3965 14.4017 30.3965Z" fill="#5C1010"/>
<path fill-rule="evenodd" clip-rule="evenodd" d="M30.7847 30.2461H31.9023C31.9597 30.2461 32.0061 30.2929 32.0061 30.3483V31.4063C32.0061 31.4616 31.9597 31.5064 31.9023 31.5064H30.7847C30.7273 31.5064 30.6787 31.4638 30.6787 31.4063V30.3483C30.6787 30.2929 30.7273 30.2461 30.7847 30.2461Z" fill="#5C1010"/>
<path fill-rule="evenodd" clip-rule="evenodd" d="M36.795 34.8652H37.9125C37.97 34.8652 38.0186 34.9099 38.0186 34.9653V36.0233C38.0186 36.0787 37.97 36.1255 37.9125 36.1255H36.795C36.7376 36.1255 36.689 36.0808 36.689 36.0233V34.9653C36.689 34.9121 36.7376 34.8652 36.795 34.8652Z" fill="#5C1010"/>
<path fill-rule="evenodd" clip-rule="evenodd" d="M12.1971 32.4688H13.3146C13.372 32.4688 13.4206 32.5156 13.4206 32.5688V33.6268C13.4206 33.6822 13.372 33.729 13.3146 33.729H12.1971C12.1396 33.729 12.0933 33.6843 12.0933 33.6268V32.5688C12.0933 32.5156 12.1396 32.4688 12.1971 32.4688Z" fill="#5C1010"/>
<path fill-rule="evenodd" clip-rule="evenodd" d="M28.5826 32.3203H29.7001C29.7576 32.3203 29.8039 32.365 29.8039 32.4204V33.4784C29.8039 33.5337 29.7576 33.5806 29.7001 33.5806H28.5826C28.5252 33.5806 28.4766 33.5359 28.4766 33.4784V32.4204C28.4766 32.365 28.5252 32.3203 28.5826 32.3203Z" fill="#5C1010"/>
<path fill-rule="evenodd" clip-rule="evenodd" d="M38.9964 34.8652H40.1139C40.1714 34.8652 40.22 34.9099 40.22 34.9653V36.0233C40.22 36.0787 40.1714 36.1255 40.1139 36.1255H38.9964C38.939 36.1255 38.8926 36.0808 38.8926 36.0233V34.9653C38.8926 34.9121 38.939 34.8652 38.9964 34.8652Z" fill="#5C1010"/>
<path fill-rule="evenodd" clip-rule="evenodd" d="M30.7847 32.3203H31.9023C31.9597 32.3203 32.0061 32.365 32.0061 32.4204V33.4784C32.0061 33.5337 31.9597 33.5806 31.9023 33.5806H30.7847C30.7273 33.5806 30.6787 33.5359 30.6787 33.4784V32.4204C30.6787 32.365 30.7273 32.3203 30.7847 32.3203Z" fill="#5C1010"/>
<path fill-rule="evenodd" clip-rule="evenodd" d="M12.1971 34.4453H13.3146C13.372 34.4453 13.4206 34.4879 13.4206 34.5454V35.6034C13.4206 35.6587 13.372 35.7056 13.3146 35.7056H12.1971C12.1396 35.7056 12.0933 35.6609 12.0933 35.6034V34.5454C12.0933 34.49 12.1396 34.4453 12.1971 34.4453Z" fill="#5C1010"/>
<path fill-rule="evenodd" clip-rule="evenodd" d="M28.5826 34.2949H29.7001C29.7576 34.2949 29.8039 34.3396 29.8039 34.3971V35.4551C29.8039 35.5105 29.7576 35.5552 29.7001 35.5552H28.5826C28.5252 35.5552 28.4766 35.5126 28.4766 35.4551V34.3971C28.4766 34.3418 28.5252 34.2949 28.5826 34.2949Z" fill="#5C1010"/>
<path fill-rule="evenodd" clip-rule="evenodd" d="M30.7847 34.2949H31.9023C31.9597 34.2949 32.0061 34.3396 32.0061 34.3971V35.4551C32.0061 35.5105 31.9597 35.5552 31.9023 35.5552H30.7847C30.7273 35.5552 30.6787 35.5126 30.6787 35.4551V34.3971C30.6787 34.3418 30.7273 34.2949 30.7847 34.2949Z" fill="#5C1010"/>
<path fill-rule="evenodd" clip-rule="evenodd" d="M28.5826 40.2773H29.7001C29.7576 40.2773 29.8039 40.3242 29.8039 40.3795V41.4375C29.8039 41.4929 29.7576 41.5376 29.7001 41.5376H28.5826C28.5252 41.5376 28.4766 41.4929 28.4766 41.4375V40.3795C28.4766 40.3242 28.5252 40.2773 28.5826 40.2773Z" fill="#5C1010"/>
<path fill-rule="evenodd" clip-rule="evenodd" d="M28.5826 38.2637H29.7001C29.7576 38.2637 29.8039 38.3084 29.8039 38.3659V39.4239C29.8039 39.4771 29.7576 39.5239 29.7001 39.5239H28.5826C28.5252 39.5239 28.4766 39.4771 28.4766 39.4239V38.3659C28.4766 38.3105 28.5252 38.2637 28.5826 38.2637Z" fill="#5C1010"/>
<path fill-rule="evenodd" clip-rule="evenodd" d="M28.5826 36.2715H29.7001C29.7576 36.2715 29.8039 36.3162 29.8039 36.3737V37.4317C29.8039 37.4849 29.7576 37.5317 29.7001 37.5317H28.5826C28.5252 37.5317 28.4766 37.4849 28.4766 37.4317V36.3737C28.4766 36.3183 28.5252 36.2715 28.5826 36.2715Z" fill="#5C1010"/>
<path fill-rule="evenodd" clip-rule="evenodd" d="M30.7847 38.2637H31.9023C31.9597 38.2637 32.0061 38.3084 32.0061 38.3659V39.4239C32.0061 39.4771 31.9597 39.5239 31.9023 39.5239H30.7847C30.7273 39.5239 30.6787 39.4771 30.6787 39.4239V38.3659C30.6787 38.3105 30.7273 38.2637 30.7847 38.2637Z" fill="#5C1010"/>
<path fill-rule="evenodd" clip-rule="evenodd" d="M30.7847 36.2715H31.9023C31.9597 36.2715 32.0061 36.3162 32.0061 36.3737V37.4317C32.0061 37.4849 31.9597 37.5317 31.9023 37.5317H30.7847C30.7273 37.5317 30.6787 37.4849 30.6787 37.4317V36.3737C30.6787 36.3183 30.7273 36.2715 30.7847 36.2715Z" fill="#5C1010"/>
<path fill-rule="evenodd" clip-rule="evenodd" d="M20.4219 11.8027H21.5395C21.5969 11.8027 21.6455 11.8453 21.6455 11.9028V12.9608C21.6455 13.0162 21.5969 13.063 21.5395 13.063H20.4219C20.3645 13.063 20.3159 13.0162 20.3159 12.9608V11.9028C20.3159 11.8474 20.3645 11.8027 20.4219 11.8027Z" fill="#5C1010"/>
<path fill-rule="evenodd" clip-rule="evenodd" d="M22.6241 11.8027H23.7416C23.7991 11.8027 23.8477 11.8453 23.8477 11.9028V12.9608C23.8477 13.0162 23.7991 13.063 23.7416 13.063H22.6241C22.5667 13.063 22.5181 13.0162 22.5181 12.9608V11.9028C22.5181 11.8474 22.5667 11.8027 22.6241 11.8027Z" fill="#5C1010"/>
<path fill-rule="evenodd" clip-rule="evenodd" d="M20.4219 13.8008H21.5395C21.5969 13.8008 21.6455 13.8434 21.6455 13.9008V14.9589C21.6455 15.0142 21.5969 15.061 21.5395 15.061H20.4219C20.3645 15.061 20.3159 15.0163 20.3159 14.9589V13.9008C20.3159 13.8455 20.3645 13.8008 20.4219 13.8008Z" fill="#5C1010"/>
<path fill-rule="evenodd" clip-rule="evenodd" d="M22.6241 13.8008H23.7416C23.7991 13.8008 23.8477 13.8434 23.8477 13.9008V14.9589C23.8477 15.0142 23.7991 15.061 23.7416 15.061H22.6241C22.5667 15.061 22.5181 15.0163 22.5181 14.9589V13.9008C22.5181 13.8455 22.5667 13.8008 22.6241 13.8008Z" fill="#5C1010"/>
<path fill-rule="evenodd" clip-rule="evenodd" d="M20.4219 15.8984H21.5395C21.5969 15.8984 21.6455 15.9431 21.6455 16.0006V17.0586C21.6455 17.114 21.5969 17.1587 21.5395 17.1587H20.4219C20.3645 17.1587 20.3159 17.114 20.3159 17.0586V16.0006C20.3159 15.9453 20.3645 15.8984 20.4219 15.8984Z" fill="#5C1010"/>
<path fill-rule="evenodd" clip-rule="evenodd" d="M22.6241 15.8984H23.7416C23.7991 15.8984 23.8477 15.9431 23.8477 16.0006V17.0586C23.8477 17.114 23.7991 17.1587 23.7416 17.1587H22.6241C22.5667 17.1587 22.5181 17.114 22.5181 17.0586V16.0006C22.5181 15.9453 22.5667 15.8984 22.6241 15.8984Z" fill="#5C1010"/>
<path fill-rule="evenodd" clip-rule="evenodd" d="M20.4219 17.8477H21.5395C21.5969 17.8477 21.6455 17.8924 21.6455 17.9477V19.0057C21.6455 19.0611 21.5969 19.1079 21.5395 19.1079H20.4219C20.3645 19.1079 20.3159 19.0632 20.3159 19.0057V17.9477C20.3159 17.8924 20.3645 17.8477 20.4219 17.8477Z" fill="#5C1010"/>
<path fill-rule="evenodd" clip-rule="evenodd" d="M22.6241 17.8477H23.7416C23.7991 17.8477 23.8477 17.8924 23.8477 17.9477V19.0057C23.8477 19.0611 23.7991 19.1079 23.7416 19.1079H22.6241C22.5667 19.1079 22.5181 19.0632 22.5181 19.0057V17.9477C22.5181 17.8924 22.5667 17.8477 22.6241 17.8477Z" fill="#5C1010"/>
<path fill-rule="evenodd" clip-rule="evenodd" d="M20.4219 19.7871H21.5395C21.5969 19.7871 21.6455 19.8297 21.6455 19.8872V20.9452C21.6455 21.0005 21.5969 21.0474 21.5395 21.0474H20.4219C20.3645 21.0474 20.3159 21.0027 20.3159 20.9452V19.8872C20.3159 19.8339 20.3645 19.7871 20.4219 19.7871Z" fill="#5C1010"/>
<path fill-rule="evenodd" clip-rule="evenodd" d="M22.6241 19.7871H23.7416C23.7991 19.7871 23.8477 19.8297 23.8477 19.8872V20.9452C23.8477 21.0005 23.7991 21.0474 23.7416 21.0474H22.6241C22.5667 21.0474 22.5181 21.0027 22.5181 20.9452V19.8872C22.5181 19.8339 22.5667 19.7871 22.6241 19.7871Z" fill="#5C1010"/>
<path fill-rule="evenodd" clip-rule="evenodd" d="M20.4219 21.7734H21.5395C21.5969 21.7734 21.6455 21.816 21.6455 21.8735V22.9315C21.6455 22.9869 21.5969 23.0337 21.5395 23.0337H20.4219C20.3645 23.0337 20.3159 22.9869 20.3159 22.9315V21.8735C20.3159 21.8181 20.3645 21.7734 20.4219 21.7734Z" fill="#5C1010"/>
<path fill-rule="evenodd" clip-rule="evenodd" d="M22.6241 21.7734H23.7416C23.7991 21.7734 23.8477 21.816 23.8477 21.8735V22.9315C23.8477 22.9869 23.7991 23.0337 23.7416 23.0337H22.6241C22.5667 23.0337 22.5181 22.9869 22.5181 22.9315V21.8735C22.5181 21.8181 22.5667 21.7734 22.6241 21.7734Z" fill="#5C1010"/>
<path fill-rule="evenodd" clip-rule="evenodd" d="M20.4219 23.8359H21.5395C21.5969 23.8359 21.6455 23.8828 21.6455 23.936V24.994C21.6455 25.0494 21.5969 25.0962 21.5395 25.0962H20.4219C20.3645 25.0962 20.3159 25.0515 20.3159 24.994V23.936C20.3159 23.8828 20.3645 23.8359 20.4219 23.8359Z" fill="#5C1010"/>
<path fill-rule="evenodd" clip-rule="evenodd" d="M22.6241 23.8359H23.7416C23.7991 23.8359 23.8477 23.8828 23.8477 23.936V24.994C23.8477 25.0494 23.7991 25.0962 23.7416 25.0962H22.6241C22.5667 25.0962 22.5181 25.0515 22.5181 24.994V23.936C22.5181 23.8828 22.5667 23.8359 22.6241 23.8359Z" fill="#5C1010"/>
<path fill-rule="evenodd" clip-rule="evenodd" d="M20.4219 25.8086H21.5395C21.5969 25.8086 21.6455 25.8512 21.6455 25.9086V26.9667C21.6455 27.022 21.5969 27.0689 21.5395 27.0689H20.4219C20.3645 27.0689 20.3159 27.022 20.3159 26.9667V25.9086C20.3159 25.8533 20.3645 25.8086 20.4219 25.8086Z" fill="#5C1010"/>
<path fill-rule="evenodd" clip-rule="evenodd" d="M22.6241 25.8086H23.7416C23.7991 25.8086 23.8477 25.8512 23.8477 25.9086V26.9667C23.8477 27.022 23.7991 27.0689 23.7416 27.0689H22.6241C22.5667 27.0689 22.5181 27.022 22.5181 26.9667V25.9086C22.5181 25.8533 22.5667 25.8086 22.6241 25.8086Z" fill="#5C1010"/>
<path fill-rule="evenodd" clip-rule="evenodd" d="M20.4219 27.8848H21.5395C21.5969 27.8848 21.6455 27.9295 21.6455 27.9848V29.0428C21.6455 29.0982 21.5969 29.145 21.5395 29.145H20.4219C20.3645 29.145 20.3159 29.0982 20.3159 29.0428V27.9848C20.3159 27.9295 20.3645 27.8848 20.4219 27.8848Z" fill="#5C1010"/>
<path fill-rule="evenodd" clip-rule="evenodd" d="M22.6241 27.8848H23.7416C23.7991 27.8848 23.8477 27.9295 23.8477 27.9848V29.0428C23.8477 29.0982 23.7991 29.145 23.7416 29.145H22.6241C22.5667 29.145 22.5181 29.0982 22.5181 29.0428V27.9848C22.5181 27.9295 22.5667 27.8848 22.6241 27.8848Z" fill="#5C1010"/>
<path fill-rule="evenodd" clip-rule="evenodd" d="M20.4219 29.8613H21.5395C21.5969 29.8613 21.6455 29.9039 21.6455 29.9614V31.0194C21.6455 31.0748 21.5969 31.1216 21.5395 31.1216H20.4219C20.3645 31.1216 20.3159 31.0769 20.3159 31.0194V29.9614C20.3159 29.906 20.3645 29.8613 20.4219 29.8613Z" fill="#5C1010"/>
<path fill-rule="evenodd" clip-rule="evenodd" d="M22.6241 29.8613H23.7416C23.7991 29.8613 23.8477 29.9039 23.8477 29.9614V31.0194C23.8477 31.0748 23.7991 31.1216 23.7416 31.1216H22.6241C22.5667 31.1216 22.5181 31.0769 22.5181 31.0194V29.9614C22.5181 29.906 22.5667 29.8613 22.6241 29.8613Z" fill="#5C1010"/>
<path fill-rule="evenodd" clip-rule="evenodd" d="M20.4219 31.8379H21.5395C21.5969 31.8379 21.6455 31.8826 21.6455 31.9401V32.9981C21.6455 33.0534 21.5969 33.0982 21.5395 33.0982H20.4219C20.3645 33.0982 20.3159 33.0534 20.3159 32.9981V31.9401C20.3159 31.8847 20.3645 31.8379 20.4219 31.8379Z" fill="#5C1010"/>
<path fill-rule="evenodd" clip-rule="evenodd" d="M22.6241 31.8379H23.7416C23.7991 31.8379 23.8477 31.8826 23.8477 31.9401V32.9981C23.8477 33.0534 23.7991 33.0982 23.7416 33.0982H22.6241C22.5667 33.0982 22.5181 33.0534 22.5181 32.9981V31.9401C22.5181 31.8847 22.5667 31.8379 22.6241 31.8379Z" fill="#5C1010"/>
<path fill-rule="evenodd" clip-rule="evenodd" d="M22.6241 33.8848H23.7416C23.7991 33.8848 23.8477 33.9316 23.8477 33.9869V35.045C23.8477 35.0982 23.7991 35.145 23.7416 35.145H22.6241C22.5667 35.145 22.5181 35.1003 22.5181 35.045V33.9869C22.5181 33.9316 22.5667 33.8848 22.6241 33.8848Z" fill="#5C1010"/>
<mask id="mask0_1076_1621" style="mask-type:luminance" maskUnits="userSpaceOnUse" x="0" y="0" width="45" height="55">
<path d="M0.09375 0.751953H44.0937V54.2491H0.09375V0.751953Z" fill="white"/>
</mask>
<g mask="url(#mask0_1076_1621)">
<path fill-rule="evenodd" clip-rule="evenodd" d="M39.2178 22.6679L39.2951 22.6978C39.8539 22.9 40.532 23.0256 41.051 23.2534C41.2718 23.3492 41.4154 23.5514 41.4264 23.792V26.2784L41.1217 26.2018C39.8738 25.8952 39.209 24.9607 39.0168 23.8643C38.9175 24.6307 38.9705 25.6185 38.9771 26.0762C38.997 27.3152 40.1035 28.2987 41.2586 28.6606L41.4287 28.7138V35.2854L43.8603 33.1332L43.8493 23.6962C43.8493 23.6429 43.825 23.5982 43.7808 23.5727C42.3165 23.3513 40.236 22.7339 39.008 21.7249L39.0279 22.5956C39.0743 22.6147 39.1229 22.6339 39.1715 22.653L39.2223 22.6722L39.2178 22.6679ZM0.103283 33.0268L2.75362 35.36V23.8643C2.76687 23.6259 2.90822 23.4258 3.12908 23.3258C3.76737 23.0448 4.5183 22.8766 5.20518 22.6062L5.22727 21.595C3.94627 22.6381 1.66477 23.3215 0.169541 23.5684C0.127578 23.594 0.101074 23.6387 0.101074 23.694V33.0268H0.103283ZM8.75884 34.2594L11.2016 36.1434L11.1927 15.034C11.1927 14.7892 11.3363 14.5699 11.5682 14.4699C12.2418 14.1718 12.9199 13.8248 13.5626 13.4672V11.6875C12.3898 13.0627 10.5368 14.2165 8.83172 14.7062C8.78313 14.7338 8.75221 14.7786 8.75221 14.836L8.75884 34.2615V34.2594ZM16.7739 9.68217V30.8958L19.2608 32.8096V10.9062H25.0297V36.0305L27.5166 34.1189L27.5188 14.1314L27.5122 5.84817C27.521 5.76514 27.51 5.58206 27.4327 5.54587C25.9529 4.87317 23.8348 3.54053 23.0177 2.18447C22.7482 1.73742 22.4235 1.23928 22.1497 0.753906C21.8802 1.23502 21.5246 1.77361 21.2751 2.18447C20.4557 3.54266 18.3376 4.8753 16.86 5.54587C16.7827 5.58206 16.7717 5.76514 16.7805 5.84817L16.7783 9.68429H16.7739V9.68217ZM22.3374 3.64697L24.8552 5.13288C24.9634 5.19675 25.0275 5.30745 25.0275 5.42879V8.39423H19.263V5.42879C19.263 5.30745 19.3271 5.19675 19.4353 5.13288L21.9531 3.64697C22.0724 3.57885 22.2159 3.57885 22.3352 3.64697H22.3374ZM27.4857 38.3701L25.0783 40.2669V48.0775L22.1077 50.9259L19.3248 48.2542V37.195L14.6028 33.4525V36.5329L16.7783 38.2573V44.9865L8.76105 38.4936V41.5335L16.7783 48.0285V49.0866L22.1541 54.2468L27.5166 49.0993V47.8902L35.4058 41.4633C35.4433 41.4335 35.461 41.3973 35.461 41.3504L35.472 14.9318C35.472 14.8744 35.4433 14.8275 35.3925 14.802C33.6676 14.2825 31.7328 13.084 30.5314 11.6811V13.4608C31.1741 13.8206 31.8499 14.1655 32.5257 14.4635C32.7576 14.5657 32.9012 14.7807 32.9012 15.0276L32.8902 40.1264C32.8902 40.3137 32.8084 40.4798 32.6627 40.6011L27.4857 44.8204V38.368V38.3701Z" fill="#5C1010"/>
</g>
</svg>
