<svg width="33" height="26" viewBox="0 0 33 26" fill="none" xmlns="http://www.w3.org/2000/svg">
<path d="M29.3509 0L32.0938 2.68254C28.9107 6.53439 27.3191 10.1799 27.3191 13.619C27.3191 14.8571 27.8609 16.164 28.9445 17.5397C30.0281 18.8466 30.5699 20.1534 30.5699 21.4603C30.5699 22.6984 30.0281 23.7645 28.9445 24.6587C27.9287 25.5529 26.6419 26 25.0842 26C23.5266 26 22.2059 25.3466 21.1223 24.0397C20.0387 22.664 19.4969 20.6005 19.4969 17.8492C19.4969 15.0291 20.3096 12.0026 21.935 8.76984C23.6281 5.46825 26.1001 2.54497 29.3509 0ZM9.94772 0L12.6906 2.68254C9.50751 6.53439 7.91597 10.1799 7.91597 13.619C7.91597 14.8571 8.45777 16.164 9.54137 17.5397C10.625 18.8466 11.1668 20.1534 11.1668 21.4603C11.1668 22.6984 10.625 23.7645 9.54137 24.6587C8.5255 25.5529 7.23872 26 5.68105 26C4.12338 26 2.80274 25.3466 1.71915 24.0397C0.635549 22.664 0.09375 20.6005 0.09375 17.8492C0.09375 15.0291 0.906448 12.0026 2.53184 8.76984C4.22497 5.46825 6.69692 2.54497 9.94772 0Z" fill="#D4AF37"/>
</svg>
