<svg width="101" height="100" viewBox="0 0 101 100" fill="none" xmlns="http://www.w3.org/2000/svg">
<path fill-rule="evenodd" clip-rule="evenodd" d="M89.8091 48.2747L86.5508 45.6664V88.5414H91.7591C92.5879 88.5414 93.3828 88.8706 93.9688 89.4567C94.5549 90.0427 94.8841 90.8376 94.8841 91.6664C94.8841 92.4952 94.5549 93.29 93.9688 93.8761C93.3828 94.4622 92.5879 94.7914 91.7591 94.7914H8.42578C7.59698 94.7914 6.80212 94.4622 6.21607 93.8761C5.63002 93.29 5.30078 92.4952 5.30078 91.6664C5.30078 90.8376 5.63002 90.0427 6.21607 89.4567C6.80212 88.8706 7.59698 88.5414 8.42578 88.5414H13.6341V45.6664L10.3799 48.2747C10.0593 48.5311 9.69131 48.7218 9.29697 48.8359C8.90263 48.95 8.48967 48.9854 8.08168 48.9399C7.67368 48.8944 7.27863 48.7691 6.91909 48.5709C6.55955 48.3728 6.24255 48.1058 5.9862 47.7851C5.72985 47.4645 5.53916 47.0965 5.42503 46.7022C5.3109 46.3078 5.27555 45.8949 5.32101 45.4869C5.36648 45.0789 5.49185 44.6838 5.68999 44.3243C5.88812 43.9647 6.15514 43.6477 6.47578 43.3914L40.3299 16.3081C43.1007 14.0908 46.5437 12.8828 50.0924 12.8828C53.6412 12.8828 57.0842 14.0908 59.8549 16.3081L93.7091 43.3914C94.0353 43.6456 94.3078 43.962 94.5108 44.3222C94.7138 44.6825 94.8432 45.0794 94.8917 45.4901C94.9402 45.9008 94.9066 46.317 94.7931 46.7146C94.6795 47.1122 94.4881 47.4833 94.2301 47.8064C93.972 48.1296 93.6524 48.3983 93.2897 48.5969C92.9271 48.7956 92.5286 48.9204 92.1174 48.9639C91.7062 49.0075 91.2904 48.969 90.8942 48.8507C90.4979 48.7324 90.1291 48.5366 89.8091 48.2747ZM50.0924 28.1247C47.0535 28.1247 44.139 29.3319 41.9902 31.4808C39.8413 33.6296 38.6341 36.5441 38.6341 39.5831C38.6341 42.622 39.8413 45.5365 41.9902 47.6853C44.139 49.8342 47.0535 51.0414 50.0924 51.0414C53.1314 51.0414 56.0459 49.8342 58.1947 47.6853C60.3436 45.5365 61.5508 42.622 61.5508 39.5831C61.5508 36.5441 60.3436 33.6296 58.1947 31.4808C56.0459 29.3319 53.1314 28.1247 50.0924 28.1247ZM57.3674 55.4664C55.4549 55.2081 53.0674 55.2081 50.2966 55.2081H49.8883C47.1174 55.2081 44.7299 55.2081 42.8174 55.4664C40.7716 55.7414 38.8049 56.3622 37.2133 57.9539C35.6216 59.5456 35.0008 61.5122 34.7258 63.5581C34.4674 65.4706 34.4674 67.8581 34.4674 70.6289V88.5414H65.7174V70.1122C65.7174 67.5622 65.7008 65.3497 65.4591 63.5581C65.1841 61.5122 64.5633 59.5456 62.9716 57.9539C61.3799 56.3622 59.4174 55.7414 57.3674 55.4664Z" fill="#191919"/>
<g opacity="0.5">
<path d="M44.8867 39.5833C44.8867 38.202 45.4355 36.8772 46.4122 35.9005C47.389 34.9237 48.7137 34.375 50.0951 34.375C51.4764 34.375 52.8011 34.9237 53.7779 35.9005C54.7547 36.8772 55.3034 38.202 55.3034 39.5833C55.3034 40.9647 54.7547 42.2894 53.7779 43.2662C52.8011 44.2429 51.4764 44.7917 50.0951 44.7917C48.7137 44.7917 47.389 44.2429 46.4122 43.2662C45.4355 42.2894 44.8867 40.9647 44.8867 39.5833Z" fill="#5C1010"/>
<path d="M44.8867 39.5833C44.8867 38.202 45.4355 36.8772 46.4122 35.9005C47.389 34.9237 48.7137 34.375 50.0951 34.375C51.4764 34.375 52.8011 34.9237 53.7779 35.9005C54.7547 36.8772 55.3034 38.202 55.3034 39.5833C55.3034 40.9647 54.7547 42.2894 53.7779 43.2662C52.8011 44.2429 51.4764 44.7917 50.0951 44.7917C48.7137 44.7917 47.389 44.2429 46.4122 43.2662C45.4355 42.2894 44.8867 40.9647 44.8867 39.5833Z" fill="#5C1010"/>
</g>
<path opacity="0.5" d="M50.3021 55.2083C53.0688 55.2083 55.4563 55.2083 57.3688 55.4667C59.4188 55.7417 61.3813 56.3625 62.9729 57.9542C64.5646 59.5458 65.1854 61.5083 65.4604 63.5583C65.7021 65.35 65.7188 67.5583 65.7188 70.1125V88.5417H34.4688V70.625C34.4688 67.8583 34.4688 65.4708 34.7271 63.5583C35.0021 61.5083 35.6229 59.5458 37.2146 57.9542C38.8063 56.3625 40.7729 55.7417 42.8187 55.4667C44.7312 55.2083 47.1188 55.2083 49.8896 55.2083H50.3021ZM66.7604 12.5H77.1771C77.7296 12.5 78.2595 12.7195 78.6502 13.1102C79.0409 13.5009 79.2604 14.0308 79.2604 14.5833V31.8333L64.6771 20.1667V14.5833C64.6771 14.0308 64.8966 13.5009 65.2873 13.1102C65.678 12.7195 66.2079 12.5 66.7604 12.5Z" fill="#5C1010"/>
</svg>
