<svg xmlns="http://www.w3.org/2000/svg" viewBox="0 0 24 24" fill="#FFFFFF">
  <path d="M17.472 14.382c-.297-.149-1.758-.867-2.03-.967-.273-.099-.471-.148-.67.15-.197.297-.767.966-.967 1.164-.173.199-.347.223-.644.075-.297-.15-1.255-.463-2.39-1.475-.883-.788-1.48-1.761-1.653-2.059-.173-.297-.018-.458.13-.606.134-.133.298-.347.446-.52.149-.174.198-.298.298-.497.099-.198.05-.371-.025-.52-.075-.149-.669-1.612-.916-2.207-.242-.579-.487-.5-.669-.51-.173-.008-.371-.01-.57-.01-.198 0-.52.074-.792.372-.272.297-1.04 1.016-1.04 2.479 0 1.462 1.065 2.875 1.213 3.074.149.198 2.096 3.2 5.077 4.487.709.306 1.262.489 1.694.625.712.227 1.36.195 1.871.118.571-.085 1.758-.719 2.006-1.413.248-.694.248-1.289.173-1.413-.074-.124-.272-.198-.57-.347z"/>
  <path d="M11.5 2C6.25 2 2 6.25 2 11.5c0 1.89.55 3.65 1.5 5.13L2 22l5.56-1.44c1.38.83 2.99 1.31 4.71 1.31 5.25 0 9.5-4.25 9.5-9.5S16.75 2 11.5 2zm0 17.1c-1.58 0-3.1-.47-4.34-1.33l-.31-.18-3.21.84.84-3.1-.19-.32c-.93-1.38-1.39-2.96-1.39-4.61C3 6.92 6.77 2.95 11.5 2.95S20 6.92 20 11.5 16.23 19.1 11.5 19.1z"/>
</svg> 