<svg width="21" height="14" viewBox="0 0 21 14" fill="none" xmlns="http://www.w3.org/2000/svg">
<path d="M8.09375 10L13.2837 7L8.09375 4V10ZM19.6537 2.17C19.7837 2.64 19.8738 3.27 19.9338 4.07C20.0037 4.87 20.0338 5.56 20.0338 6.16L20.0938 7C20.0938 9.19 19.9338 10.8 19.6537 11.83C19.4037 12.73 18.8237 13.31 17.9237 13.56C17.4538 13.69 16.5938 13.78 15.2738 13.84C13.9738 13.91 12.7838 13.94 11.6838 13.94L10.0938 14C5.90375 14 3.29375 13.84 2.26375 13.56C1.36375 13.31 0.78375 12.73 0.53375 11.83C0.40375 11.36 0.31375 10.73 0.25375 9.93C0.18375 9.13 0.15375 8.44 0.15375 7.84L0.09375 7C0.09375 4.81 0.25375 3.2 0.53375 2.17C0.78375 1.27 1.36375 0.69 2.26375 0.44C2.73375 0.31 3.59375 0.22 4.91375 0.16C6.21375 0.0899998 7.40375 0.0599999 8.50375 0.0599999L10.0938 0C14.2838 0 16.8937 0.16 17.9237 0.44C18.8237 0.69 19.4037 1.27 19.6537 2.17Z" fill="#FFFBFC"/>
</svg>
